<svg width="205" height="231" viewBox="0 0 205 231" fill="none" xmlns="http://www.w3.org/2000/svg">
<path d="M201.058 68.2143V205.786C201.058 217.486 189.595 227 175.499 227H82.5587C68.4627 227 57 217.486 57 205.786V68.2143C57 56.5143 68.4627 47 82.5587 47H175.499C189.595 47 201.058 56.5143 201.058 68.2143Z" fill="#FAF2F9" stroke="#22D1EE" stroke-width="7" stroke-miterlimit="10"/>
<path d="M148.058 25.2143V162.786C148.058 174.486 136.595 184 122.499 184H29.5587C15.4627 184 4 174.486 4 162.786V25.2143C4 13.5143 15.4627 4 29.5587 4H122.499C136.595 4 148.058 13.5143 148.058 25.2143Z" fill="#22D1EE" stroke="#FAF2F9" stroke-width="7" stroke-miterlimit="10"/>
</svg>
