<svg width="184" height="194" viewBox="0 0 184 194" fill="none" xmlns="http://www.w3.org/2000/svg">
<path d="M160.476 110.16C162.357 106.396 163.458 102.254 163.706 98.0073C163.954 93.7609 163.343 89.5074 161.914 85.5289C160.484 81.5504 158.269 77.9377 155.415 74.9303C152.56 71.9229 149.133 69.5896 145.358 68.085L145.36 68.0423C145.366 58.1274 141.94 48.5511 135.725 41.1101C129.51 33.669 120.934 28.8746 111.605 27.6263C102.276 26.378 92.8353 28.7617 85.0546 34.3301C77.2739 39.8985 71.6877 48.2689 69.3441 57.8709C65.4588 56.5165 61.3362 56.0915 57.2758 56.6267C53.2153 57.1619 49.3188 58.644 45.8694 60.9652C42.4201 63.2864 39.5043 66.3885 37.334 70.0462C35.1637 73.7039 33.7933 77.8254 33.3224 82.1112C28.2074 83.2568 23.6759 86.3588 20.602 90.8189C17.5281 95.279 16.1294 100.781 16.6758 106.264C17.2222 111.747 19.6749 116.823 23.5609 120.512C27.4469 124.201 32.4909 126.243 37.72 126.242C38.0457 126.242 38.3676 126.219 38.6878 126.2C38.6804 126.539 38.64 126.871 38.64 127.212C38.6375 135.435 41.0534 143.457 45.5548 150.172C50.0562 156.887 56.4218 161.965 63.7746 164.707C71.1274 167.449 79.1056 167.72 86.6104 165.482C94.1151 163.244 100.777 158.607 105.679 152.211C108.12 154.851 111.122 156.84 114.437 158.013C117.752 159.187 121.285 159.512 124.742 158.962C128.2 158.411 131.484 157.001 134.322 154.848C137.16 152.694 139.472 149.859 141.065 146.577C145.501 148.07 150.289 147.903 154.622 146.105C158.954 144.307 162.566 140.988 164.847 136.709C167.128 132.429 167.938 127.451 167.142 122.614C166.346 117.777 163.991 113.378 160.476 110.16V110.16Z" fill="#C7EDE6"/>
<path d="M28.52 99.0823H10.12C9.87595 99.0823 9.64195 98.9801 9.46941 98.7982C9.29688 98.6163 9.19995 98.3696 9.19995 98.1123C9.19995 97.8551 9.29688 97.6083 9.46941 97.4264C9.64195 97.2445 9.87595 97.1423 10.12 97.1423H28.52C28.7639 97.1423 28.998 97.2445 29.1705 97.4264C29.343 97.6083 29.44 97.8551 29.44 98.1123C29.44 98.3696 29.343 98.6163 29.1705 98.7982C28.998 98.9801 28.7639 99.0823 28.52 99.0823ZM34.04 99.0823H32.2C31.956 99.0823 31.7219 98.9801 31.5494 98.7982C31.3769 98.6163 31.28 98.3696 31.28 98.1123C31.28 97.8551 31.3769 97.6083 31.5494 97.4264C31.7219 97.2445 31.956 97.1423 32.2 97.1423H34.04C34.2839 97.1423 34.518 97.2445 34.6905 97.4264C34.863 97.6083 34.9599 97.8551 34.9599 98.1123C34.9599 98.3696 34.863 98.6163 34.6905 98.7982C34.518 98.9801 34.2839 99.0823 34.04 99.0823ZM43.2234 102.962H26.68C26.436 102.962 26.2019 102.86 26.0294 102.678C25.8569 102.496 25.76 102.25 25.76 101.992C25.76 101.735 25.8569 101.488 26.0294 101.306C26.2019 101.125 26.436 101.022 26.68 101.022H43.2234C43.4674 101.022 43.7014 101.125 43.8739 101.306C44.0465 101.488 44.1434 101.735 44.1434 101.992C44.1434 102.25 44.0465 102.496 43.8739 102.678C43.7014 102.86 43.4674 102.962 43.2234 102.962ZM23 102.962H21.16C20.916 102.962 20.6819 102.86 20.5094 102.678C20.3369 102.496 20.24 102.25 20.24 101.992C20.24 101.735 20.3369 101.488 20.5094 101.306C20.6819 101.125 20.916 101.022 21.16 101.022H23C23.2439 101.022 23.478 101.125 23.6505 101.306C23.823 101.488 23.92 101.735 23.92 101.992C23.92 102.25 23.823 102.496 23.6505 102.678C23.478 102.86 23.2439 102.962 23 102.962ZM17.48 102.962H13.8C13.556 102.962 13.3219 102.86 13.1494 102.678C12.9769 102.496 12.88 102.25 12.88 101.992C12.88 101.735 12.9769 101.488 13.1494 101.306C13.3219 101.125 13.556 101.022 13.8 101.022H17.48C17.7239 101.022 17.958 101.125 18.1305 101.306C18.303 101.488 18.4 101.735 18.4 101.992C18.4 102.25 18.303 102.496 18.1305 102.678C17.958 102.86 17.7239 102.962 17.48 102.962ZM28.52 106.842H24.84C24.596 106.842 24.3619 106.74 24.1894 106.558C24.0169 106.376 23.92 106.13 23.92 105.872C23.92 105.615 24.0169 105.368 24.1894 105.186C24.3619 105.005 24.596 104.902 24.84 104.902H28.52C28.7639 104.902 28.998 105.005 29.1705 105.186C29.343 105.368 29.44 105.615 29.44 105.872C29.44 106.13 29.343 106.376 29.1705 106.558C28.998 106.74 28.7639 106.842 28.52 106.842ZM34.04 89.3823H32.2C31.956 89.3823 31.7219 89.4845 31.5494 89.6664C31.3769 89.8483 31.28 90.0951 31.28 90.3523C31.28 90.6096 31.3769 90.8563 31.5494 91.0382C31.7219 91.2201 31.956 91.3223 32.2 91.3223H34.04C34.2839 91.3223 34.518 91.2201 34.6905 91.0382C34.863 90.8563 34.9599 90.6096 34.9599 90.3523C34.9599 90.0951 34.863 89.8483 34.6905 89.6664C34.518 89.4845 34.2839 89.3823 34.04 89.3823ZM34.04 93.2623H24.84C24.596 93.2623 24.3619 93.3645 24.1894 93.5464C24.0169 93.7283 23.92 93.9751 23.92 94.2323C23.92 94.4896 24.0169 94.7363 24.1894 94.9182C24.3619 95.1001 24.596 95.2023 24.84 95.2023H34.04C34.2839 95.2023 34.518 95.1001 34.6905 94.9182C34.863 94.7363 34.9599 94.4896 34.9599 94.2323C34.9599 93.9751 34.863 93.7283 34.6905 93.5464C34.518 93.3645 34.2839 93.2623 34.04 93.2623ZM43.2399 97.1423H37.7199C37.476 97.1423 37.2419 97.2445 37.0694 97.4264C36.8969 97.6083 36.7999 97.8551 36.7999 98.1123C36.7999 98.3696 36.8969 98.6163 37.0694 98.7982C37.2419 98.9801 37.476 99.0823 37.7199 99.0823H43.2399C43.4839 99.0823 43.718 98.9801 43.8905 98.7982C44.063 98.6163 44.1599 98.3696 44.1599 98.1123C44.1599 97.8551 44.063 97.6083 43.8905 97.4264C43.718 97.2445 43.4839 97.1423 43.2399 97.1423Z" fill="white"/>
<path d="M133.4 46.7023H115C114.756 46.7023 114.522 46.6001 114.349 46.4182C114.177 46.2363 114.08 45.9896 114.08 45.7323C114.08 45.4751 114.177 45.2283 114.349 45.0464C114.522 44.8645 114.756 44.7623 115 44.7623H133.4C133.644 44.7623 133.878 44.8645 134.05 45.0464C134.223 45.2283 134.32 45.4751 134.32 45.7323C134.32 45.9896 134.223 46.2363 134.05 46.4182C133.878 46.6001 133.644 46.7023 133.4 46.7023ZM140.76 46.7023H137.08C136.836 46.7023 136.602 46.6001 136.429 46.4182C136.257 46.2363 136.16 45.9896 136.16 45.7323C136.16 45.4751 136.257 45.2283 136.429 45.0464C136.602 44.8645 136.836 44.7623 137.08 44.7623H140.76C141.004 44.7623 141.238 44.8645 141.41 45.0464C141.583 45.2283 141.68 45.4751 141.68 45.7323C141.68 45.9896 141.583 46.2363 141.41 46.4182C141.238 46.6001 141.004 46.7023 140.76 46.7023ZM149.96 50.5823H131.56C131.316 50.5823 131.082 50.4801 130.909 50.2982C130.737 50.1163 130.64 49.8696 130.64 49.6123C130.64 49.3551 130.737 49.1083 130.909 48.9264C131.082 48.7445 131.316 48.6423 131.56 48.6423H149.96C150.204 48.6423 150.438 48.7445 150.61 48.9264C150.783 49.1083 150.88 49.3551 150.88 49.6123C150.88 49.8696 150.783 50.1163 150.61 50.2982C150.438 50.4801 150.204 50.5823 149.96 50.5823ZM127.88 50.5823H126.04C125.796 50.5823 125.562 50.4801 125.389 50.2982C125.217 50.1163 125.12 49.8696 125.12 49.6123C125.12 49.3551 125.217 49.1083 125.389 48.9264C125.562 48.7445 125.796 48.6423 126.04 48.6423H127.88C128.124 48.6423 128.358 48.7445 128.53 48.9264C128.703 49.1083 128.8 49.3551 128.8 49.6123C128.8 49.8696 128.703 50.1163 128.53 50.2982C128.358 50.4801 128.124 50.5823 127.88 50.5823ZM122.305 50.5823H118.68C118.436 50.5823 118.202 50.4801 118.029 50.2982C117.857 50.1163 117.76 49.8696 117.76 49.6123C117.76 49.3551 117.857 49.1083 118.029 48.9264C118.202 48.7445 118.436 48.6423 118.68 48.6423H122.305C122.549 48.6423 122.783 48.7445 122.955 48.9264C123.128 49.1083 123.225 49.3551 123.225 49.6123C123.225 49.8696 123.128 50.1163 122.955 50.2982C122.783 50.4801 122.549 50.5823 122.305 50.5823ZM138.92 42.8223H129.72C129.476 42.8223 129.242 42.7201 129.069 42.5382C128.897 42.3563 128.8 42.1096 128.8 41.8523C128.8 41.5951 128.897 41.3483 129.069 41.1664C129.242 40.9845 129.476 40.8823 129.72 40.8823H138.92C139.164 40.8823 139.398 40.9845 139.57 41.1664C139.743 41.3483 139.84 41.5951 139.84 41.8523C139.84 42.1096 139.743 42.3563 139.57 42.5382C139.398 42.7201 139.164 42.8223 138.92 42.8223ZM133.4 54.4623H129.72C129.476 54.4623 129.242 54.3601 129.069 54.1782C128.897 53.9963 128.8 53.7496 128.8 53.4923C128.8 53.2351 128.897 52.9883 129.069 52.8064C129.242 52.6245 129.476 52.5223 129.72 52.5223H133.4C133.644 52.5223 133.878 52.6245 134.05 52.8064C134.223 52.9883 134.32 53.2351 134.32 53.4923C134.32 53.7496 134.223 53.9963 134.05 54.1782C133.878 54.3601 133.644 54.4623 133.4 54.4623Z" fill="white"/>
<path d="M144.443 93.1202H150.193V92.1502H160.083C162.205 92.156 164.249 91.2995 165.789 89.7587C167.328 88.2179 168.246 86.1111 168.351 83.8757C168.457 81.6402 167.742 79.4479 166.354 77.7537C164.967 76.0595 163.014 74.9937 160.901 74.7775C160.956 74.4276 160.989 74.0745 161.003 73.7202C161.009 71.9039 160.476 70.131 159.478 68.6503C158.48 67.1697 157.067 66.0555 155.438 65.4641C153.81 64.8727 152.046 64.8338 150.395 65.3528C148.744 65.8718 147.289 66.9227 146.233 68.3581C146.183 66.9917 145.86 65.6519 145.283 64.427C144.707 63.2021 143.891 62.1199 142.889 61.2517C141.887 60.3836 140.722 59.7491 139.47 59.3902C138.219 59.0312 136.909 58.956 135.628 59.1693C134.347 59.3827 133.124 59.8799 132.038 60.6281C130.953 61.3763 130.03 62.3585 129.33 63.5101C128.631 64.6616 128.171 65.9564 127.981 67.309C127.791 68.6616 127.874 70.0413 128.227 71.3573C127.436 70.3314 126.376 69.5735 125.179 69.1783C123.982 68.783 122.701 68.7678 121.497 69.1345C120.292 69.5012 119.216 70.2337 118.403 71.2406C117.59 72.2475 117.076 73.4843 116.925 74.7969C116.594 74.7397 116.259 74.7041 115.923 74.6902C113.727 74.6902 111.621 75.61 110.068 77.2472C108.515 78.8844 107.643 81.1049 107.643 83.4202C107.643 85.7356 108.515 87.9561 110.068 89.5933C111.621 91.2305 113.727 92.1502 115.923 92.1502H144.443V93.1202Z" fill="#FDFCEF"/>
<path d="M137.083 58.2002C134.399 58.2032 131.827 59.3283 129.93 61.3287C128.033 63.329 126.965 66.0413 126.963 68.8702V68.9614C125.848 68.267 124.577 67.9005 123.283 67.9002C121.654 67.9065 120.074 68.4823 118.789 69.5372C117.505 70.5922 116.588 72.0668 116.184 73.7299C116.097 73.7241 116.011 73.7202 115.923 73.7202C113.483 73.7202 111.142 74.7422 109.417 76.5613C107.692 78.3804 106.723 80.8476 106.723 83.4202C106.723 85.9928 107.692 88.46 109.417 90.2791C111.142 92.0982 113.483 93.1202 115.923 93.1202H144.443C144.687 93.1202 144.921 93.018 145.093 92.8361C145.266 92.6542 145.363 92.4075 145.363 92.1502C145.363 91.8929 145.266 91.6462 145.093 91.4643C144.921 91.2824 144.687 91.1802 144.443 91.1802H115.923C113.971 91.1802 112.098 90.3626 110.718 88.9073C109.338 87.4521 108.563 85.4783 108.563 83.4202C108.563 81.3621 109.338 79.3883 110.718 77.933C112.098 76.4778 113.971 75.6602 115.923 75.6602C116.134 75.6661 116.345 75.6868 116.554 75.7223L116.813 75.7591C116.851 75.7646 116.889 75.7672 116.927 75.7669C117.151 75.7654 117.366 75.6788 117.533 75.5229C117.701 75.3671 117.809 75.1526 117.838 74.9191C117.966 73.7943 118.406 72.7342 119.102 71.8712C119.798 71.0082 120.72 70.3804 121.752 70.0663C122.784 69.7522 123.882 69.7656 124.907 70.1049C125.932 70.4442 126.839 71.0944 127.516 71.9742C127.603 72.0844 127.711 72.1732 127.834 72.2342C127.957 72.2952 128.091 72.327 128.227 72.3273C128.373 72.3277 128.517 72.2904 128.646 72.2186C128.833 72.1173 128.981 71.9519 129.066 71.7497C129.151 71.5475 129.168 71.3207 129.113 71.107C128.917 70.379 128.813 69.6269 128.803 68.8702C128.798 66.5964 129.636 64.4108 131.139 62.7801C132.642 61.1494 134.69 60.203 136.846 60.143C139.002 60.0829 141.094 60.9141 142.677 62.4588C144.259 64.0036 145.206 66.1396 145.315 68.4104C145.324 68.6077 145.391 68.7972 145.506 68.9535C145.62 69.1098 145.778 69.2255 145.956 69.285C146.135 69.3445 146.327 69.345 146.506 69.2865C146.685 69.2279 146.842 69.1132 146.958 68.9575C147.895 67.6807 149.188 66.7456 150.656 66.2834C152.123 65.8213 153.691 65.8553 155.139 66.3808C156.587 66.9062 157.842 67.8967 158.729 69.2131C159.616 70.5294 160.089 72.1056 160.083 73.7202C160.077 73.9431 160.057 74.1654 160.024 74.3856L159.989 74.6592C159.974 74.7873 159.983 74.9172 160.017 75.0413C160.05 75.1655 160.107 75.2814 160.183 75.3822C160.26 75.483 160.354 75.5667 160.462 75.6285C160.569 75.6902 160.688 75.7287 160.809 75.7417C162.688 75.9329 164.424 76.8796 165.657 78.3852C166.891 79.8908 167.527 81.8395 167.433 83.8266C167.34 85.8137 166.524 87.6864 165.155 89.0558C163.786 90.4252 161.97 91.186 160.083 91.1802H149.963C149.719 91.1802 149.485 91.2824 149.312 91.4643C149.139 91.6462 149.043 91.8929 149.043 92.1502C149.043 92.4075 149.139 92.6542 149.312 92.8361C149.485 93.018 149.719 93.1202 149.963 93.1202H160.083C162.361 93.1262 164.56 92.2384 166.252 90.6296C167.944 89.0209 169.007 86.8061 169.236 84.4161C169.465 82.0261 168.842 79.6318 167.49 77.699C166.137 75.7662 164.15 74.433 161.917 73.9588C161.921 73.8793 161.923 73.7997 161.923 73.7202C161.92 71.1485 160.95 68.683 159.225 66.8645C157.5 65.046 155.162 64.0231 152.723 64.0202C150.579 64.0198 148.504 64.8198 146.866 66.2784C146.323 63.9744 145.065 61.9278 143.293 60.4641C141.52 59.0003 139.334 58.2035 137.083 58.2002V58.2002Z" fill="#472B29"/>
<path d="M134.323 71.7798C133.074 71.789 131.866 72.2426 130.893 73.0669C129.92 73.8913 129.24 75.0381 128.963 76.3213C128.29 75.8905 127.519 75.6617 126.733 75.6598C125.672 75.6616 124.649 76.0694 123.852 76.8074C123.056 77.5454 122.541 78.5633 122.403 79.6717C122.05 79.5854 121.689 79.5411 121.327 79.5398C119.963 79.547 118.652 80.097 117.656 81.0798C116.661 82.0625 116.054 83.4055 115.958 84.8399C115.949 84.9683 115.99 85.0949 116.07 85.1923C116.15 85.2896 116.263 85.3498 116.384 85.3598H116.418C116.534 85.3596 116.646 85.3132 116.731 85.2297C116.816 85.1462 116.867 85.0319 116.876 84.9097C116.911 84.1935 117.102 83.4956 117.436 82.8708C117.77 82.246 118.237 81.7114 118.8 81.3088C119.363 80.9063 120.007 80.6469 120.681 80.551C121.355 80.4551 122.041 80.5254 122.685 80.7562C122.725 80.7692 122.766 80.7758 122.808 80.7756C122.912 80.7737 123.012 80.737 123.095 80.6708C123.154 80.6234 123.201 80.5622 123.234 80.4922C123.266 80.4222 123.283 80.3453 123.283 80.2673C123.279 79.5677 123.468 78.882 123.826 78.2932C124.185 77.7045 124.697 77.2379 125.302 76.9501C125.907 76.6623 126.578 76.5655 127.234 76.6715C127.89 76.7775 128.502 77.0818 128.998 77.5474C129.082 77.6254 129.189 77.6688 129.301 77.6696C129.36 77.67 129.418 77.6574 129.472 77.6328C129.552 77.5994 129.621 77.5432 129.671 77.4704C129.722 77.3977 129.752 77.3114 129.758 77.2215C129.851 76.0097 130.372 74.8788 131.217 74.0512C132.062 73.2237 133.169 72.7594 134.323 72.7498C134.748 72.7565 135.171 72.8264 135.577 72.9574C135.619 72.9704 135.663 72.977 135.706 72.9768C135.817 72.9759 135.924 72.933 136.007 72.8558C136.09 72.7787 136.144 72.6725 136.159 72.5568C136.174 72.4411 136.149 72.3235 136.089 72.2257C136.028 72.1279 135.936 72.0563 135.83 72.0242C135.341 71.8682 134.833 71.7859 134.323 71.7798V71.7798ZM159.867 74.6898C158.67 74.6971 157.508 75.1137 156.554 75.877C155.6 76.6402 154.908 77.709 154.579 78.9229C154.563 78.9841 154.558 79.0483 154.564 79.1116C154.571 79.1749 154.59 79.2361 154.619 79.2918C154.649 79.3475 154.688 79.3965 154.736 79.4361C154.783 79.4756 154.838 79.5049 154.896 79.5223C154.937 79.5336 154.98 79.5395 155.023 79.5398C155.123 79.5397 155.22 79.5051 155.3 79.4414C155.379 79.3777 155.437 79.2882 155.464 79.1867C155.738 78.1758 156.314 77.2856 157.108 76.6497C157.902 76.0138 158.87 75.6664 159.867 75.6598C160.078 75.6637 160.288 75.6825 160.497 75.716C160.518 75.7199 160.539 75.7219 160.561 75.7219C160.677 75.7209 160.789 75.6735 160.874 75.5893C160.958 75.505 161.009 75.3901 161.017 75.2677C161.024 75.1453 160.987 75.0244 160.914 74.9294C160.84 74.8344 160.735 74.7724 160.62 74.7557C160.371 74.716 160.119 74.694 159.867 74.6898V74.6898Z" fill="#472B29"/>
<path d="M128.25 129.01L102.49 143.56V127.07L128.25 112.52V129.01Z" fill="#BDC4D6"/>
<path d="M126.41 91.1802H119.05V98.9402H126.41V91.1802Z" fill="#BDC4D6"/>
<path d="M128.25 97.9701L119.97 94.5751L126.41 91.1801L111.69 84.3901V108.64L128.25 97.9701Z" fill="#DEE0E2"/>
<path d="M128.25 97.9702L113.53 106.258V58.2002L82.2498 75.6602V123.867V149.087V149.38L93.4351 142.79L128.25 123.19V97.9702Z" fill="#BDC4D6"/>
<path d="M87.7699 45.5898L56.4899 61.1098V134.83L82.2499 149.38V75.6598L113.53 58.1998L87.7699 45.5898Z" fill="#DEE0E2"/>
<path d="M128.25 112.52L119.05 107.67L93.2898 122.22V138.71L102.49 143.56V127.07L128.25 112.52Z" fill="#DEE0E2"/>
<path d="M87.7698 40.7397L71.2098 49.4697V61.1098L80.4098 65.952V54.3197L96.9698 45.5897L87.7698 40.7397Z" fill="#EA6075"/>
<path d="M80.4098 54.3198V65.9521L96.9698 57.2298V45.5898L80.4098 54.3198Z" fill="#C6243F"/>
<path d="M56.4898 105.73L56.4015 92.9956L65.6898 96.9998V110.58L56.4898 105.73Z" fill="#F492AC"/>
<path d="M65.6898 97.0001V110.58L73.0498 106.7V93.1201L65.6898 97.0001Z" fill="#C6243F"/>
<path d="M89.6099 89.24V82.45L96.0499 79.54V86.33L89.6099 89.24Z" fill="#605E60"/>
<path d="M63.8498 78.5698L52.8098 84.3898V96.9998L62.0098 101.85V89.2398L73.0498 83.4198L63.8498 78.5698Z" fill="#F96C55"/>
<path d="M62.0098 89.2399V101.85L73.0498 95.0599V83.4199L62.0098 89.2399Z" fill="#E55838"/>
<path d="M71.2098 49.4702L80.4098 54.3202V65.9525L71.2098 61.1102V49.4702Z" fill="#F492AC"/>
<path d="M52.8098 84.3901L62.0098 89.2401V101.85L52.8098 97.0001V84.3901Z" fill="#FC7C59"/>
<path d="M82.2502 150.738C82.0382 150.738 81.8296 150.683 81.6428 150.577L55.8828 136.027C55.6773 135.911 55.5055 135.738 55.3855 135.528C55.2656 135.317 55.2022 135.076 55.2019 134.83V99.7791L52.2334 98.2142C52.0197 98.1012 51.84 97.9278 51.7144 97.7133C51.5888 97.4989 51.5221 97.2519 51.5219 96.9998V84.3898C51.5221 84.1377 51.5888 83.8907 51.7144 83.6763C51.8401 83.4618 52.0197 83.2884 52.2334 83.1754L55.2019 81.6105V61.1098C55.2021 60.8577 55.2688 60.6107 55.3944 60.3963C55.5201 60.1818 55.6997 60.0084 55.9134 59.8954L69.9219 52.5105V49.4698C69.9221 49.2177 69.9888 48.9707 70.1144 48.7563C70.2401 48.5418 70.4197 48.3684 70.6334 48.2554L87.1934 39.5254C87.3725 39.431 87.57 39.3818 87.7703 39.3818C87.9705 39.3818 88.168 39.431 88.3471 39.5254L97.5471 44.3754C97.7608 44.4884 97.9405 44.6618 98.0661 44.8763C98.1918 45.0907 98.2584 45.3377 98.2587 45.5898V48.6305L114.107 56.9854C114.321 57.0984 114.5 57.2718 114.626 57.4863C114.752 57.7007 114.818 57.9477 114.819 58.1998V84.4646L126.917 89.9313C127.149 90.0359 127.346 90.21 127.485 90.4319C127.624 90.6538 127.698 90.9139 127.699 91.1798V96.3017L128.703 96.6986C128.948 96.7957 129.16 96.9694 129.309 97.1966C129.458 97.4237 129.538 97.6935 129.539 97.9698V129.01C129.538 129.256 129.475 129.497 129.355 129.708C129.235 129.918 129.063 130.091 128.858 130.207L103.098 144.757C102.916 144.86 102.713 144.915 102.507 144.918C102.301 144.921 102.098 144.871 101.913 144.774L97.0061 142.187L82.881 150.563C82.6885 150.678 82.4713 150.738 82.2502 150.738V150.738ZM57.7785 134.017L82.2358 147.831L96.3394 139.467C96.5227 139.357 96.7288 139.297 96.9395 139.292C97.1501 139.286 97.3587 139.336 97.5469 139.435L102.47 142.031L126.962 128.197V98.9104L125.957 98.5135C125.712 98.4164 125.501 98.2427 125.351 98.0155C125.202 97.7884 125.122 97.5187 125.122 97.2423V92.075L113.023 86.6083C112.792 86.5037 112.594 86.3296 112.455 86.1077C112.316 85.8858 112.242 85.6257 112.242 85.3598V59.0391L96.3934 50.6842C96.1797 50.5712 96 50.3978 95.8744 50.1833C95.7488 49.9689 95.6821 49.7219 95.6819 49.4698V46.4291L87.7702 42.2583L72.4986 50.3091V53.3498C72.4983 53.6019 72.4317 53.8489 72.306 54.0633C72.1804 54.2778 72.0007 54.4512 71.787 54.5642L57.7786 61.9491V82.4498C57.7783 82.7019 57.7117 82.9489 57.586 83.1633C57.4604 83.3778 57.2807 83.5512 57.067 83.6642L54.0986 85.2291V96.1606L57.067 97.7254C57.2807 97.8385 57.4604 98.0119 57.586 98.2264C57.7117 98.4408 57.7783 98.6878 57.7786 98.9399L57.7785 134.017Z" fill="#472B29"/>
<path d="M85.9301 51.6525C85.8785 51.6522 85.8284 51.6335 85.7879 51.5996C85.7475 51.5656 85.7191 51.5183 85.7073 51.4653C85.6955 51.4122 85.7009 51.3565 85.7228 51.3071C85.7446 51.2578 85.7816 51.2176 85.8277 51.193L89.5077 49.253C89.5623 49.2247 89.6252 49.2202 89.6829 49.2407C89.7405 49.2612 89.7881 49.305 89.8152 49.3624C89.8423 49.4198 89.8467 49.4861 89.8275 49.547C89.8082 49.6078 89.7669 49.6581 89.7126 49.6869L86.0326 51.6269C86.0007 51.6436 85.9657 51.6523 85.9301 51.6525V51.6525Z" fill="#472B29"/>
<path d="M80.4102 54.562C80.3746 54.5621 80.3395 54.5533 80.3077 54.5364L78.4677 53.5664C78.4134 53.5376 78.3721 53.4873 78.3529 53.4265C78.3336 53.3657 78.3381 53.2993 78.3652 53.2419C78.3923 53.1845 78.4398 53.1408 78.4974 53.1203C78.5551 53.0998 78.618 53.1042 78.6726 53.1326L80.4102 54.0486L83.0677 52.6476C83.1223 52.6192 83.1852 52.6148 83.2429 52.6353C83.3005 52.6558 83.3481 52.6995 83.3752 52.7569C83.4023 52.8143 83.4067 52.8807 83.3875 52.9415C83.3682 53.0023 83.3269 53.0526 83.2726 53.0814L80.5126 54.5364C80.4808 54.5533 80.4457 54.5621 80.4102 54.562Z" fill="#472B29"/>
<path d="M80.4102 67.3117C80.2106 67.3115 80.0138 67.2625 79.8352 67.1687L70.6352 62.3253C70.421 62.2125 70.2409 62.039 70.1149 61.8244C69.9889 61.6098 69.9221 61.3624 69.9219 61.11V53.35C69.9212 53.1712 69.9541 52.994 70.0186 52.8286C70.083 52.6632 70.1778 52.5128 70.2975 52.3861C70.4172 52.2594 70.5595 52.1589 70.7161 52.0903C70.8727 52.0218 71.0406 51.9864 71.2102 51.9864C71.3798 51.9864 71.5478 52.0218 71.7044 52.0903C71.861 52.1589 72.0033 52.2594 72.123 52.3861C72.2427 52.5128 72.3375 52.6632 72.4019 52.8286C72.4664 52.994 72.4992 53.1712 72.4986 53.35V60.2697L80.4102 64.4358L95.6819 56.3906V49.47C95.6812 49.2912 95.7141 49.114 95.7786 48.9486C95.843 48.7832 95.9378 48.6328 96.0575 48.5061C96.1772 48.3794 96.3195 48.2789 96.4761 48.2103C96.6327 48.1418 96.8006 48.1064 96.9702 48.1064C97.1398 48.1064 97.3078 48.1418 97.4644 48.2103C97.621 48.2789 97.7633 48.3794 97.883 48.5061C98.0027 48.6328 98.0975 48.7832 98.1619 48.9486C98.2264 49.114 98.2592 49.2912 98.2586 49.47V57.23C98.2585 57.4823 98.1917 57.7296 98.0657 57.9441C97.9397 58.1586 97.7594 58.3319 97.5452 58.4444L80.9852 67.1678C80.8069 67.2625 80.6099 67.3118 80.4102 67.3117V67.3117Z" fill="#472B29"/>
<path d="M65.6902 111.938C65.49 111.938 65.2925 111.889 65.1134 111.794L55.9134 106.944C55.6079 106.783 55.3757 106.5 55.2679 106.158C55.1601 105.817 55.1854 105.444 55.3384 105.122C55.4914 104.799 55.7595 104.555 56.0837 104.441C56.4079 104.327 56.7616 104.354 57.0671 104.515L65.6903 109.061L71.7619 105.861V84.2591L63.8413 80.0835C61.2196 81.4249 57.7786 83.2105 57.2611 83.5382C57.0002 83.7437 56.6751 83.8374 56.3513 83.8004C56.0276 83.7634 55.7291 83.5985 55.516 83.3388C55.3028 83.0792 55.1909 82.7441 55.2026 82.4009C55.2144 82.0578 55.3489 81.732 55.5792 81.4893C55.7589 81.2998 55.9638 81.0848 63.2896 77.3478C63.4669 77.2565 63.6618 77.2097 63.8592 77.211C64.0565 77.2123 64.2509 77.2617 64.427 77.3554L73.627 82.2054C73.8407 82.3184 74.0204 82.4919 74.146 82.7063C74.2717 82.9207 74.3384 83.1678 74.3386 83.4198V106.7C74.3384 106.952 74.2717 107.199 74.146 107.413C74.0204 107.628 73.8407 107.801 73.627 107.914L66.267 111.794C66.088 111.889 65.8905 111.938 65.6902 111.938V111.938Z" fill="#472B29"/>
<path d="M62.0102 103.208C61.81 103.208 61.6125 103.159 61.4334 103.064L55.9134 100.154C55.6079 99.9929 55.3757 99.7103 55.2679 99.3684C55.16 99.0266 55.1854 98.6537 55.3384 98.3316C55.4914 98.0095 55.7595 97.7647 56.0836 97.651C56.4078 97.5373 56.7616 97.564 57.0671 97.7253L61.9636 100.307L72.4016 93.887C72.6966 93.7056 73.0479 93.6552 73.3781 93.7469C73.7083 93.8386 73.9905 94.0648 74.1626 94.3758C74.3346 94.6868 74.3824 95.0572 74.2955 95.4054C74.2085 95.7536 73.9939 96.0511 73.6989 96.2325L62.6589 103.022C62.4622 103.144 62.2382 103.208 62.0102 103.208Z" fill="#472B29"/>
<path d="M96.9684 142.008C96.7687 142.008 96.5718 141.958 96.3934 141.864L92.7134 139.924C92.4997 139.811 92.32 139.638 92.1944 139.423C92.0687 139.209 92.0021 138.962 92.0018 138.71V122.22C92.0021 121.974 92.0656 121.733 92.1855 121.522C92.3055 121.311 92.4773 121.138 92.6828 121.022L118.443 106.472C118.625 106.37 118.827 106.315 119.033 106.312C119.239 106.309 119.443 106.358 119.627 106.455L128.827 111.305C128.978 111.385 129.113 111.496 129.224 111.63C129.335 111.765 129.419 111.922 129.473 112.091C129.526 112.26 129.547 112.439 129.535 112.617C129.523 112.795 129.478 112.968 129.402 113.128C129.326 113.287 129.221 113.43 129.094 113.546C128.966 113.663 128.817 113.752 128.657 113.809C128.496 113.865 128.327 113.887 128.158 113.874C127.989 113.862 127.825 113.814 127.673 113.734L119.07 109.199L94.5785 123.033V137.871L97.5469 139.435C97.8064 139.573 98.0143 139.798 98.137 140.075C98.2597 140.353 98.2901 140.665 98.2231 140.963C98.1562 141.261 97.9958 141.526 97.7681 141.716C97.5404 141.905 97.2586 142.008 96.9684 142.008V142.008Z" fill="#472B29"/>
<path d="M113.53 107.615C113.189 107.614 112.861 107.471 112.619 107.216C112.378 106.962 112.242 106.616 112.242 106.256V85.3596C112.241 85.1808 112.274 85.0036 112.338 84.8382C112.403 84.6728 112.498 84.5225 112.617 84.3958C112.737 84.2691 112.879 84.1686 113.036 84.1C113.193 84.0314 113.361 83.9961 113.53 83.9961C113.7 83.9961 113.868 84.0314 114.024 84.1C114.181 84.1686 114.323 84.2691 114.443 84.3958C114.563 84.5225 114.657 84.6728 114.722 84.8382C114.786 85.0036 114.819 85.1808 114.819 85.3596V103.991L127.643 96.7713C127.944 96.6015 128.297 96.5649 128.624 96.6695C128.951 96.7741 129.226 97.0115 129.387 97.3293C129.548 97.6471 129.583 98.0193 129.483 98.3641C129.384 98.709 129.159 98.9981 128.858 99.1679L114.138 107.455C113.95 107.559 113.742 107.614 113.53 107.615V107.615Z" fill="#472B29"/>
<path d="M126.41 98.2121C126.295 98.212 126.181 98.1892 126.074 98.1448L119.634 95.4773C119.469 95.4086 119.326 95.2909 119.222 95.1384C119.119 94.9859 119.06 94.8051 119.052 94.6179C119.044 94.4307 119.088 94.245 119.178 94.0834C119.267 93.9217 119.4 93.7909 119.559 93.7069L125.999 90.3119C126.107 90.2549 126.224 90.2209 126.345 90.2119C126.465 90.2029 126.587 90.219 126.701 90.2593C126.816 90.2995 126.922 90.3632 127.013 90.4467C127.104 90.5302 127.179 90.6318 127.233 90.7457C127.287 90.8597 127.319 90.9837 127.328 91.1108C127.337 91.2379 127.321 91.3655 127.283 91.4864C127.245 91.6072 127.184 91.719 127.105 91.8152C127.026 91.9115 126.93 91.9903 126.822 92.0473L122.229 94.4684L126.746 96.3393C126.946 96.4217 127.112 96.575 127.216 96.7728C127.32 96.9706 127.355 97.2004 127.315 97.4226C127.275 97.6447 127.163 97.8451 126.998 97.9893C126.832 98.1334 126.625 98.2122 126.41 98.212L126.41 98.2121Z" fill="#472B29"/>
<path d="M80.4102 57.9576C80.38 57.9577 80.3501 57.9514 80.3221 57.9392C80.2942 57.927 80.2689 57.9092 80.2475 57.8867C80.2261 57.8641 80.2092 57.8374 80.1976 57.808C80.1861 57.7785 80.1802 57.747 80.1802 57.7151V54.3201C80.1802 54.2558 80.2044 54.1941 80.2475 54.1487C80.2907 54.1032 80.3492 54.0776 80.4102 54.0776C80.4712 54.0776 80.5297 54.1032 80.5728 54.1487C80.6159 54.1941 80.6402 54.2558 80.6402 54.3201V57.7151C80.6402 57.747 80.6343 57.7785 80.6227 57.808C80.6112 57.8374 80.5942 57.8641 80.5729 57.8867C80.5515 57.9092 80.5261 57.927 80.4982 57.9392C80.4703 57.9514 80.4404 57.9577 80.4102 57.9576V57.9576Z" fill="#472B29"/>
<path d="M80.4102 66.1957C80.38 66.1957 80.3501 66.1895 80.3221 66.1773C80.2942 66.1651 80.2689 66.1472 80.2475 66.1247C80.2261 66.1022 80.2092 66.0754 80.1976 66.046C80.1861 66.0166 80.1802 65.985 80.1802 65.9532V60.6248C80.1802 60.5605 80.2044 60.4988 80.2475 60.4534C80.2907 60.4079 80.3492 60.3823 80.4102 60.3823C80.4712 60.3823 80.5297 60.4079 80.5728 60.4534C80.6159 60.4988 80.6402 60.5605 80.6402 60.6248V65.9532C80.6402 65.985 80.6343 66.0166 80.6227 66.046C80.6112 66.0754 80.5942 66.1022 80.5729 66.1247C80.5515 66.1472 80.5261 66.1651 80.4982 66.1773C80.4703 66.1895 80.4404 66.1957 80.4102 66.1957V66.1957Z" fill="#472B29"/>
<path d="M82.2501 76.1446C82.1742 76.1448 82.0994 76.1249 82.0327 76.0868L74.6727 71.9292C74.6191 71.8994 74.5716 71.8586 74.533 71.8093C74.4944 71.76 74.4654 71.7032 74.4477 71.642C74.4301 71.5809 74.424 71.5167 74.43 71.453C74.4359 71.3894 74.4537 71.3277 74.4824 71.2714C74.511 71.215 74.55 71.1652 74.597 71.1248C74.644 71.0844 74.6981 71.0542 74.7562 71.036C74.8143 71.0177 74.8752 71.0117 74.9355 71.0184C74.9958 71.0251 75.0543 71.0442 75.1075 71.0748L82.2519 75.1102L113.314 57.7704C113.423 57.712 113.548 57.7004 113.664 57.7381C113.78 57.7757 113.878 57.8598 113.936 57.9722C113.993 58.0859 114.005 58.2189 113.97 58.3419C113.934 58.465 113.853 58.5681 113.746 58.6287L82.4657 76.0887C82.3991 76.1251 82.3252 76.1443 82.2501 76.1446V76.1446Z" fill="#472B29"/>
<path d="M71.2101 69.909C71.1335 69.9091 71.0582 69.8889 70.9909 69.8503L61.5609 64.4461C61.5066 64.4165 61.4584 64.3758 61.4191 64.3263C61.3799 64.2768 61.3504 64.2195 61.3325 64.1579C61.3145 64.0962 61.3083 64.0314 61.3144 63.9672C61.3205 63.9031 61.3386 63.8408 61.3677 63.7841C61.3969 63.7274 61.4365 63.6774 61.4842 63.637C61.5319 63.5967 61.5868 63.5667 61.6456 63.549C61.7044 63.5312 61.766 63.526 61.8267 63.5337C61.8875 63.5414 61.9461 63.5617 61.9993 63.5936L71.4293 68.9977C71.5194 69.0491 71.5906 69.1306 71.6317 69.2294C71.6728 69.3283 71.6815 69.4387 71.6563 69.5434C71.6312 69.648 71.5736 69.7407 71.4928 69.807C71.412 69.8732 71.3125 69.9091 71.2101 69.909V69.909Z" fill="#472B29"/>
<path d="M82.2502 102.82C82.1282 102.82 82.0112 102.769 81.925 102.678C81.8387 102.587 81.7902 102.463 81.7902 102.335V87.7848C81.7902 87.6562 81.8386 87.5328 81.9249 87.4419C82.0112 87.3509 82.1282 87.2998 82.2502 87.2998C82.3722 87.2998 82.4892 87.3509 82.5754 87.4419C82.6617 87.5328 82.7102 87.6562 82.7102 87.7848V102.335C82.7101 102.463 82.6616 102.587 82.5753 102.678C82.4891 102.769 82.3721 102.82 82.2502 102.82V102.82Z" fill="#472B29"/>
<path d="M82.2502 83.4198C82.1282 83.4197 82.0112 83.3686 81.925 83.2777C81.8387 83.1867 81.7902 83.0634 81.7902 82.9348V75.6598C81.7902 75.5312 81.8386 75.4078 81.9249 75.3169C82.0112 75.2259 82.1282 75.1748 82.2502 75.1748C82.3722 75.1748 82.4892 75.2259 82.5754 75.3169C82.6617 75.4078 82.7102 75.5312 82.7102 75.6598V82.9348C82.7101 83.0634 82.6616 83.1867 82.5753 83.2777C82.4891 83.3686 82.3721 83.4197 82.2502 83.4198V83.4198Z" fill="#472B29"/>
<path d="M82.2502 114.46C82.1282 114.46 82.0112 114.409 81.925 114.318C81.8387 114.227 81.7902 114.104 81.7902 113.975V109.125C81.7902 108.997 81.8386 108.873 81.9249 108.782C82.0112 108.691 82.1282 108.64 82.2502 108.64C82.3722 108.64 82.4892 108.691 82.5754 108.782C82.6617 108.873 82.7102 108.997 82.7102 109.125V113.975C82.7101 114.104 82.6616 114.227 82.5753 114.318C82.4891 114.409 82.3721 114.46 82.2502 114.46V114.46Z" fill="#472B29"/>
<path d="M82.2502 149.623C82.1282 149.623 82.0112 149.571 81.925 149.481C81.8387 149.39 81.7902 149.266 81.7902 149.138V124.645C81.7902 124.517 81.8386 124.393 81.9249 124.302C82.0112 124.211 82.1282 124.16 82.2502 124.16C82.3722 124.16 82.4892 124.211 82.5754 124.302C82.6617 124.393 82.7102 124.517 82.7102 124.645V149.138C82.7101 149.266 82.6616 149.39 82.5753 149.481C82.4891 149.571 82.3721 149.623 82.2502 149.623V149.623Z" fill="#472B29"/>
<path d="M75.8102 52.1373C75.7746 52.1372 75.7396 52.1285 75.7078 52.1118L71.1078 49.6868C71.0808 49.6726 71.0567 49.6529 71.0369 49.6289C71.0171 49.6048 71.002 49.5769 70.9925 49.5467C70.983 49.5165 70.9792 49.4847 70.9814 49.453C70.9836 49.4212 70.9918 49.3903 71.0053 49.3619C71.0328 49.3049 71.0804 49.2616 71.1379 49.2413C71.1953 49.2209 71.258 49.2251 71.3126 49.2529L75.9126 51.6779C75.9588 51.7024 75.9957 51.7426 76.0176 51.792C76.0394 51.8414 76.0449 51.8971 76.0331 51.9502C76.0212 52.0032 75.9928 52.0505 75.9524 52.0845C75.912 52.1184 75.8619 52.137 75.8102 52.1373V52.1373Z" fill="#472B29"/>
<path d="M62.0102 92.8774C61.9799 92.8774 61.95 92.8712 61.9221 92.859C61.8942 92.8468 61.8688 92.829 61.8475 92.8064C61.8261 92.7839 61.8092 92.7572 61.7976 92.7278C61.7861 92.6983 61.7801 92.6668 61.7802 92.6349V89.2399C61.78 89.1948 61.7918 89.1505 61.8144 89.1121C61.8369 89.0738 61.8693 89.0429 61.9077 89.023L65.5877 87.083C65.6423 87.0551 65.705 87.051 65.7625 87.0713C65.8199 87.0917 65.8675 87.135 65.895 87.1919C65.9086 87.2203 65.9167 87.2513 65.9189 87.283C65.9211 87.3148 65.9173 87.3466 65.9078 87.3768C65.8983 87.407 65.8832 87.4349 65.8634 87.4589C65.8437 87.483 65.8196 87.5027 65.7926 87.5169L62.2402 89.3896V92.6349C62.2402 92.6668 62.2342 92.6983 62.2227 92.7278C62.2111 92.7572 62.1942 92.7839 62.1728 92.8065C62.1515 92.829 62.1261 92.8468 62.0982 92.859C62.0703 92.8712 62.0404 92.8774 62.0102 92.8774V92.8774Z" fill="#472B29"/>
<path d="M62.0101 89.4821C61.9746 89.482 61.9395 89.4733 61.9077 89.4566L60.0677 88.4866C60.0407 88.4724 60.0166 88.4527 59.9969 88.4287C59.9771 88.4046 59.962 88.3767 59.9525 88.3465C59.943 88.3164 59.9392 88.2845 59.9414 88.2528C59.9436 88.221 59.9517 88.1901 59.9653 88.1617C59.9928 88.1047 60.0404 88.0614 60.0978 88.0411C60.1553 88.0207 60.218 88.0249 60.2726 88.0527L62.1126 89.0227C62.1587 89.0472 62.1957 89.0874 62.2175 89.1368C62.2394 89.1862 62.2448 89.2419 62.233 89.295C62.2212 89.348 62.1928 89.3953 62.1523 89.4293C62.1119 89.4632 62.0618 89.4819 62.0101 89.4821V89.4821Z" fill="#472B29"/>
<path d="M62.0102 102.092C61.9799 102.092 61.95 102.086 61.9221 102.074C61.8942 102.062 61.8688 102.044 61.8475 102.021C61.8261 101.999 61.8092 101.972 61.7976 101.943C61.7861 101.913 61.7801 101.882 61.7802 101.85V95.5447C61.7802 95.4804 61.8044 95.4188 61.8475 95.3733C61.8906 95.3278 61.9492 95.3022 62.0102 95.3022C62.0712 95.3022 62.1296 95.3278 62.1728 95.3733C62.2159 95.4188 62.2402 95.4804 62.2402 95.5447V101.85C62.2402 101.882 62.2342 101.913 62.2227 101.943C62.2111 101.972 62.1942 101.999 62.1728 102.021C62.1515 102.044 62.1261 102.062 62.0982 102.074C62.0703 102.086 62.0404 102.092 62.0102 102.092Z" fill="#472B29"/>
<path d="M57.8702 87.2996C57.8347 87.2995 57.7996 87.2908 57.7678 87.2741L55.9278 86.3041C55.8735 86.2753 55.8322 86.225 55.8129 86.1642C55.7937 86.1033 55.7981 86.0369 55.8252 85.9795C55.8523 85.9221 55.8999 85.8784 55.9575 85.8579C56.0151 85.8374 56.0781 85.8419 56.1327 85.8702L57.9727 86.8402C58.0188 86.8648 58.0558 86.905 58.0776 86.9543C58.0995 87.0037 58.1049 87.0594 58.0931 87.1125C58.0813 87.1655 58.0529 87.2128 58.0124 87.2468C57.972 87.2807 57.9219 87.2994 57.8702 87.2996V87.2996Z" fill="#472B29"/>
<path d="M69.3701 85.6022C69.3184 85.6019 69.2683 85.5832 69.2279 85.5493C69.1875 85.5153 69.159 85.468 69.1472 85.415C69.1354 85.3619 69.1408 85.3062 69.1627 85.2569C69.1845 85.2075 69.2215 85.1673 69.2677 85.1427L72.9477 83.2027C73.0022 83.1744 73.0652 83.17 73.1228 83.1904C73.1804 83.2109 73.228 83.2547 73.2551 83.3121C73.2822 83.3695 73.2866 83.4359 73.2674 83.4967C73.2482 83.5575 73.2069 83.6078 73.1525 83.6366L69.4725 85.5766C69.4407 85.5933 69.4056 85.602 69.3701 85.6022Z" fill="#472B29"/>
<path d="M65.6902 106.458C65.66 106.458 65.6301 106.451 65.6022 106.439C65.5743 106.427 65.5489 106.409 65.5275 106.387C65.5062 106.364 65.4892 106.337 65.4777 106.308C65.4661 106.278 65.4602 106.247 65.4602 106.215V99.4251C65.4602 99.3608 65.4844 99.2991 65.5276 99.2536C65.5707 99.2082 65.6292 99.1826 65.6902 99.1826C65.7512 99.1826 65.8097 99.2082 65.8528 99.2536C65.896 99.2991 65.9202 99.3608 65.9202 99.4251V106.215C65.9202 106.247 65.9143 106.278 65.9027 106.308C65.8912 106.337 65.8742 106.364 65.8529 106.387C65.8315 106.409 65.8062 106.427 65.7782 106.439C65.7503 106.451 65.7204 106.458 65.6902 106.458V106.458Z" fill="#472B29"/>
<path d="M102.49 131.678C102.46 131.678 102.43 131.671 102.402 131.659C102.374 131.647 102.349 131.629 102.328 131.607C102.306 131.584 102.289 131.557 102.278 131.528C102.266 131.498 102.26 131.467 102.26 131.435V127.07C102.26 127.026 102.272 126.983 102.293 126.945C102.315 126.907 102.345 126.876 102.382 126.855L106.752 124.43C106.806 124.401 106.869 124.395 106.927 124.414C106.985 124.433 107.034 124.476 107.062 124.532C107.091 124.589 107.097 124.655 107.079 124.717C107.062 124.778 107.022 124.83 106.968 124.86L102.72 127.217V131.435C102.72 131.467 102.714 131.498 102.703 131.528C102.691 131.557 102.674 131.584 102.653 131.607C102.632 131.629 102.606 131.647 102.578 131.659C102.55 131.671 102.52 131.678 102.49 131.678V131.678Z" fill="#472B29"/>
<path d="M102.49 143.802C102.46 143.802 102.43 143.796 102.402 143.784C102.374 143.772 102.349 143.754 102.328 143.731C102.306 143.709 102.289 143.682 102.278 143.653C102.266 143.623 102.26 143.592 102.26 143.56V136.285C102.26 136.221 102.284 136.159 102.328 136.114C102.371 136.068 102.429 136.042 102.49 136.042C102.551 136.042 102.61 136.068 102.653 136.114C102.696 136.159 102.72 136.221 102.72 136.285V143.56C102.72 143.592 102.714 143.623 102.703 143.653C102.691 143.682 102.674 143.709 102.653 143.731C102.632 143.754 102.606 143.772 102.578 143.784C102.55 143.796 102.52 143.802 102.49 143.802V143.802Z" fill="#472B29"/>
<path d="M109.85 123.19C109.799 123.19 109.749 123.172 109.709 123.138C109.668 123.105 109.64 123.058 109.627 123.006C109.615 122.954 109.619 122.898 109.64 122.849C109.661 122.799 109.697 122.759 109.742 122.733L117.102 118.611C117.156 118.581 117.219 118.574 117.277 118.593C117.336 118.612 117.385 118.654 117.413 118.711C117.442 118.768 117.448 118.834 117.43 118.896C117.412 118.957 117.372 119.009 117.318 119.039L109.958 123.161C109.925 123.18 109.888 123.19 109.85 123.19V123.19Z" fill="#472B29"/>
<path d="M121.35 116.642C121.299 116.642 121.249 116.624 121.209 116.591C121.168 116.557 121.14 116.511 121.127 116.458C121.115 116.406 121.119 116.35 121.14 116.301C121.161 116.252 121.197 116.211 121.242 116.186L128.142 112.306C128.196 112.276 128.259 112.269 128.317 112.288C128.376 112.307 128.425 112.349 128.453 112.406C128.482 112.463 128.488 112.529 128.47 112.591C128.452 112.652 128.412 112.704 128.358 112.734L121.458 116.614C121.425 116.632 121.388 116.642 121.35 116.642V116.642Z" fill="#472B29"/>
<path d="M96.0502 83.1774C96.02 83.1774 95.9901 83.1712 95.9622 83.159C95.9343 83.1468 95.9089 83.1289 95.8875 83.1064C95.8662 83.0839 95.8492 83.0571 95.8377 83.0277C95.8261 82.9983 95.8202 82.9667 95.8202 82.9349V79.9074L92.92 81.2175C92.8923 81.2302 92.8624 81.237 92.8322 81.2374C92.8019 81.2379 92.7718 81.232 92.7437 81.2202C92.7156 81.2084 92.69 81.1908 92.6684 81.1685C92.6468 81.1462 92.6295 81.1196 92.6177 81.0902C92.6058 81.0609 92.5996 81.0293 92.5994 80.9974C92.5991 80.9655 92.6049 80.9339 92.6163 80.9043C92.6277 80.8748 92.6445 80.8479 92.6658 80.8252C92.6871 80.8026 92.7124 80.7846 92.7404 80.7723L95.9604 79.3173C95.9953 79.3016 96.0333 79.2952 96.0712 79.2988C96.109 79.3024 96.1454 79.3159 96.177 79.3379C96.2087 79.36 96.2347 79.39 96.2527 79.4252C96.2707 79.4605 96.2802 79.4999 96.2802 79.5399V82.9349C96.2802 82.9667 96.2743 82.9983 96.2627 83.0277C96.2512 83.0571 96.2342 83.0839 96.2129 83.1064C96.1915 83.1289 96.1662 83.1468 96.1382 83.159C96.1103 83.1712 96.0804 83.1774 96.0502 83.1774V83.1774Z" fill="#472B29"/>
<path d="M89.6101 87.5425C89.5799 87.5425 89.55 87.5362 89.5221 87.524C89.4942 87.5119 89.4688 87.494 89.4475 87.4715C89.4261 87.449 89.4091 87.4222 89.3976 87.3928C89.386 87.3634 89.3801 87.3318 89.3801 87.3V84.39C89.3801 84.3256 89.4044 84.264 89.4475 84.2185C89.4906 84.173 89.5491 84.1475 89.6101 84.1475C89.6711 84.1475 89.7296 84.173 89.7728 84.2185C89.8159 84.264 89.8401 84.3256 89.8401 84.39V87.3C89.8401 87.3318 89.8342 87.3634 89.8227 87.3928C89.8111 87.4222 89.7942 87.449 89.7728 87.4715C89.7514 87.494 89.7261 87.5119 89.6982 87.524C89.6703 87.5362 89.6403 87.5425 89.6101 87.5425Z" fill="#472B29"/>
<path d="M93.2902 87.7848C93.2371 87.7847 93.1856 87.7652 93.1446 87.7296C93.1036 87.6941 93.0755 87.6447 93.0651 87.5897C93.0547 87.5348 93.0627 87.4778 93.0877 87.4284C93.1127 87.379 93.1531 87.3402 93.2021 87.3187L95.9621 86.1062C95.9899 86.0937 96.0198 86.0871 96.0501 86.0869C96.0803 86.0867 96.1103 86.0929 96.1382 86.1051C96.1662 86.1172 96.1915 86.1352 96.2128 86.1578C96.2341 86.1805 96.2509 86.2073 96.2622 86.2369C96.2854 86.2962 96.2854 86.3628 96.2622 86.4221C96.2389 86.4814 96.1944 86.5286 96.1382 86.5533L93.3782 87.7658C93.3504 87.7784 93.3204 87.7849 93.2902 87.7848Z" fill="#472B29"/>
<path d="M59.8119 152.289H66.2519C67.8874 152.294 69.4629 151.64 70.6572 150.462C71.8514 149.284 72.5745 147.67 72.6789 145.949C72.7833 144.228 72.2613 142.53 71.2192 141.201C70.1771 139.872 68.6934 139.012 67.0707 138.797C67.2952 137.353 67.0691 135.872 66.4266 134.576C65.7841 133.279 64.7599 132.238 63.5079 131.608C62.2558 130.978 60.8437 130.793 59.4837 131.082C58.1237 131.371 56.8894 132.117 55.9663 133.209C55.587 131.335 54.563 129.675 53.0916 128.549C51.6202 127.423 49.8056 126.911 47.9976 127.113C46.1897 127.314 44.5164 128.214 43.3004 129.639C42.0843 131.063 41.4116 132.912 41.4119 134.829C41.4219 135.192 41.4563 135.554 41.515 135.912C40.8977 135.381 40.1593 135.03 39.3734 134.893C38.5875 134.757 37.7814 134.839 37.0351 135.133C36.2889 135.427 35.6285 135.921 35.1197 136.567C34.6109 137.213 34.2713 137.989 34.1347 138.816C33.2582 138.668 32.3622 138.714 31.5032 138.95C30.6442 139.185 29.8407 139.606 29.1434 140.185C28.4461 140.764 27.8701 141.489 27.4516 142.314C27.0331 143.139 26.7812 144.047 26.7117 144.98C26.6423 145.913 26.7568 146.851 27.0481 147.735C27.3394 148.619 27.8011 149.43 28.4042 150.116C29.0073 150.803 29.7387 151.351 30.5524 151.725C31.3661 152.098 32.2443 152.291 33.1319 152.289H46.9319V153.259H59.8119V152.289Z" fill="#FDFCEF"/>
<path d="M63.032 143.559C62.91 143.559 62.7931 143.508 62.7068 143.417C62.6205 143.326 62.5721 143.203 62.572 143.074C62.5732 141.934 63.0036 140.84 63.7687 140.033C64.5338 139.227 65.5711 138.773 66.6531 138.771C67.4225 138.779 68.1893 138.868 68.9421 139.035C69.0003 139.052 69.0549 139.08 69.1027 139.119C69.1505 139.158 69.1906 139.206 69.2206 139.261C69.2507 139.317 69.2702 139.377 69.278 139.44C69.2857 139.504 69.2816 139.568 69.2659 139.629C69.2502 139.69 69.2232 139.748 69.1864 139.798C69.1496 139.849 69.1038 139.891 69.0515 139.923C68.9992 139.954 68.9415 139.975 68.8817 139.983C68.8219 139.991 68.7611 139.987 68.7029 139.97C68.0304 139.814 67.3436 139.737 66.655 139.741C65.8167 139.742 65.0129 140.094 64.4199 140.718C63.827 141.343 63.4933 142.191 63.492 143.074C63.492 143.203 63.4435 143.326 63.3572 143.417C63.271 143.508 63.154 143.559 63.032 143.559V143.559ZM50.612 151.319C50.4301 151.319 50.2522 151.376 50.1009 151.483C49.9496 151.589 49.8317 151.741 49.762 151.918C49.6924 152.095 49.6742 152.29 49.7097 152.479C49.7452 152.667 49.8328 152.84 49.9615 152.975C50.0901 153.111 50.2541 153.203 50.4325 153.241C50.611 153.278 50.796 153.259 50.9641 153.186C51.1322 153.112 51.2759 152.988 51.377 152.828C51.4781 152.669 51.532 152.481 51.532 152.289C51.532 152.032 51.4351 151.785 51.2626 151.604C51.09 151.422 50.856 151.319 50.612 151.319Z" fill="#472B29"/>
<path d="M66.252 153.259H59.812C59.568 153.259 59.334 153.157 59.1614 152.975C58.9889 152.793 58.892 152.546 58.892 152.289C58.892 152.032 58.9889 151.785 59.1614 151.603C59.334 151.421 59.568 151.319 59.812 151.319H66.252C67.6535 151.323 69.0039 150.764 70.0275 149.755C71.0512 148.745 71.6711 147.362 71.7608 145.887C71.8504 144.413 71.4031 142.958 70.51 141.819C69.617 140.68 68.3455 139.943 66.9549 139.759C66.833 139.742 66.7156 139.7 66.6094 139.635C66.5033 139.569 66.4106 139.482 66.3369 139.379C66.2631 139.275 66.2098 139.157 66.1801 139.031C66.1503 138.906 66.1447 138.775 66.1637 138.647C66.2146 138.347 66.2441 138.044 66.252 137.739C66.2502 136.196 65.668 134.717 64.6332 133.626C63.5984 132.535 62.1954 131.921 60.732 131.919C59.9598 131.919 59.1964 132.091 58.4924 132.426C57.7885 132.76 57.1601 133.249 56.649 133.859C56.5354 133.992 56.3893 134.089 56.2267 134.139C56.0641 134.19 55.8914 134.192 55.7277 134.146C55.564 134.099 55.4156 134.006 55.2989 133.877C55.1823 133.747 55.1019 133.586 55.0666 133.411C54.7347 131.771 53.8386 130.318 52.5511 129.333C51.2636 128.348 49.6758 127.901 48.0939 128.077C46.512 128.253 45.0479 129.04 43.9839 130.287C42.92 131.534 42.3315 133.152 42.332 134.829C42.3384 135.101 42.3636 135.372 42.4074 135.64C42.436 135.841 42.4092 136.047 42.3303 136.233C42.2514 136.418 42.1236 136.576 41.9621 136.688C41.8098 136.794 41.6304 136.849 41.4478 136.846C41.2651 136.842 41.0877 136.78 40.9391 136.668C40.2943 136.11 39.4865 135.803 38.652 135.799C37.7906 135.799 36.9566 136.118 36.2962 136.702C35.6358 137.285 35.1911 138.094 35.0401 138.988C34.9983 139.238 34.865 139.46 34.6692 139.607C34.4733 139.754 34.2305 139.814 33.9931 139.774C33.2419 139.647 32.4739 139.686 31.7375 139.887C31.0011 140.089 30.3122 140.449 29.7143 140.945C29.1165 141.441 28.6225 142.062 28.2636 142.77C27.9047 143.477 27.6886 144.255 27.629 145.055C27.5693 145.854 27.6674 146.658 27.917 147.416C28.1667 148.174 28.5624 148.869 29.0794 149.457C29.5964 150.046 30.2234 150.515 30.9208 150.836C31.6183 151.156 32.3712 151.321 33.132 151.319H46.932C47.176 151.319 47.41 151.421 47.5825 151.603C47.755 151.785 47.852 152.032 47.852 152.289C47.852 152.546 47.755 152.793 47.5825 152.975C47.41 153.157 47.176 153.259 46.932 153.259H33.132C31.18 153.259 29.3079 152.442 27.9277 150.986C26.5474 149.531 25.772 147.557 25.772 145.499C25.772 143.441 26.5474 141.467 27.9277 140.012C29.3079 138.557 31.18 137.739 33.132 137.739C33.2405 137.739 33.3454 137.743 33.4521 137.751C33.8289 136.614 34.5318 135.628 35.4635 134.931C36.3952 134.233 37.5094 133.859 38.652 133.859C39.2868 133.858 39.9167 133.976 40.5122 134.208C40.6442 132.248 41.4 130.392 42.6572 128.94C43.9145 127.489 45.5995 126.528 47.4395 126.212C49.2794 125.897 51.1666 126.245 52.7953 127.201C54.424 128.158 55.6989 129.665 56.4135 131.481C57.508 130.633 58.8043 130.122 60.158 130.005C61.5117 129.888 62.8696 130.17 64.0805 130.818C65.2913 131.467 66.3074 132.458 67.0157 133.68C67.724 134.902 68.0966 136.307 68.092 137.739C68.092 137.832 68.0901 137.923 68.0846 138.015C69.8195 138.481 71.3328 139.601 72.34 141.161C73.3471 142.722 73.7787 144.617 73.5536 146.49C73.3284 148.363 72.462 150.085 71.1174 151.331C69.7727 152.578 68.0425 153.263 66.252 153.259V153.259Z" fill="#472B29"/>
<path d="M56.1319 151.319H54.2919C54.0479 151.319 53.8139 151.422 53.6414 151.603C53.4689 151.785 53.3719 152.032 53.3719 152.289C53.3719 152.547 53.4689 152.793 53.6414 152.975C53.8139 153.157 54.0479 153.259 54.2919 153.259H56.1319C56.3759 153.259 56.61 153.157 56.7825 152.975C56.955 152.793 57.0519 152.547 57.0519 152.289C57.0519 152.032 56.955 151.785 56.7825 151.603C56.61 151.422 56.3759 151.319 56.1319 151.319Z" fill="#472B29"/>
</svg>
