<svg width="182" height="176" viewBox="0 0 182 176" fill="none" xmlns="http://www.w3.org/2000/svg">
<path d="M49.6707 118.8L51.1873 120.267C51.1873 120.267 49.2915 105.234 51.1873 100.1C53.0832 94.967 58.0123 86.5337 58.0123 86.5337C58.0123 86.5337 54.5998 79.567 54.5998 72.967C54.5998 66.367 70.5248 52.8004 78.8665 52.8004C106.167 52.067 120.954 67.1004 127.779 69.667C134.604 71.867 151.667 62.3337 151.667 62.3337L155.458 91.667L147.875 121V123.934C147.875 126.867 147.496 129.8 146.358 132.734C142.567 141.9 136.5 157.667 136.5 157.667C136.5 157.667 121.333 160.6 99.7207 160.6C83.0373 160.6 55.7373 149.6 53.0832 143C50.429 136.4 46.2582 115.5 46.2582 115.5L49.6707 118.8Z" fill="#FFB74D"/>
<path d="M136.5 157.667C136.5 157.667 123.987 161.333 102.375 161.333C85.6915 161.333 55.7373 149.6 53.0832 143C50.429 136.4 46.2582 115.5 46.2582 115.5L49.6707 118.8L54.5998 123.567C61.0457 127.233 69.0082 130.167 75.8332 132L83.4165 121C83.4165 121 97.4457 122.833 117.542 126.867C139.533 130.9 138.775 127.6 141.429 134.2C141.808 135.3 142.567 138.6 143.325 141.533C141.429 145.2 136.5 157.667 136.5 157.667Z" fill="#7F8C8D"/>
<path d="M121.333 124.667C119.817 124.667 118.3 123.934 117.921 122.467C117.163 120.634 117.921 118.434 119.817 117.7C120.954 117.334 121.333 116.967 121.333 115.5C121.333 114.4 118.3 113.667 117.163 113.667C115.267 113.667 113.371 111.834 113.75 109.634C113.75 107.8 115.646 105.967 117.921 106.334C122.092 106.7 129.296 108.9 129.296 115.5C129.296 119.9 127.4 122.834 123.229 124.3C122.471 124.667 121.713 124.667 121.333 124.667Z" fill="#EAA549"/>
<path d="M92.1375 110C92.1375 110 97.825 110 101.996 106.7C106.167 103.4 107.304 96.8002 105.408 94.2335C103.133 91.3002 94.0334 84.7002 85.6917 84.7002C78.4875 84.7002 75.8334 90.9335 75.8334 90.9335C75.8334 90.9335 75.8334 110 92.1375 110Z" fill="white"/>
<path d="M144.083 22.0001C144.083 22.0001 141.808 37.4001 140.292 40.3334C140.292 40.3334 137.638 24.9334 125.125 18.3334C125.125 24.9334 125.125 33.0001 125.125 33.0001C125.125 33.0001 119.058 18.7001 98.5834 14.6667L106.167 33.0001C106.167 33.0001 91.7584 19.4334 68.25 18.3334C73.9375 26.0334 75.8334 33.0001 75.8334 33.0001C61.425 24.9334 51.1875 33.0001 45.5 36.6667C57.6334 38.1334 60.6667 44.0001 60.6667 44.0001C56.875 44.0001 56.875 44.0001 56.875 44.0001C41.7084 44.0001 32.9875 49.5001 30.3334 58.6667C34.8834 58.6667 41.7084 62.3334 41.7084 62.3334L30.3334 69.6667L37.9167 80.6667V99.0001L49.2917 117.333C49.2917 117.333 49.6709 117.333 53.0834 117.333C53.0834 115.867 53.0834 112.567 53.0834 110C53.0834 94.2334 59.9084 87.6334 59.9084 87.6334C61.0459 85.0667 60.6667 83.2334 58.3917 80.6667C57.2542 79.5667 56.4959 77.7334 56.4959 73.3334C56.4959 68.9334 63.7 55.0001 83.0375 55.0001C100.1 55.0001 114.508 66.3667 124.746 69.6667C134.983 73.3334 143.325 73.3334 151.288 73.3334C151.288 73.3334 158.871 70.7667 158.871 50.9667C159.25 34.8334 144.083 22.0001 144.083 22.0001Z" fill="#6D4C41"/>
<path d="M86.8292 96.8002C85.3125 102.667 87.2084 108.534 91.3792 110C91.7584 110 92.1375 110 92.5167 110C92.8959 110 93.6542 110 94.7917 109.634C97.825 108.534 100.858 105.6 101.996 101.2C103.133 96.4335 102.375 92.0335 99.7209 89.4668C98.9625 89.1002 98.2042 88.3668 97.0667 88.0002C92.8959 86.9002 88.3459 90.9335 86.8292 96.8002Z" fill="#6D4C41"/>
<path d="M96.3082 91.3004C94.0332 90.5671 91.379 92.7671 90.6207 96.4337C89.8623 100.1 90.9999 103.767 93.2749 104.5C95.5499 105.234 98.204 103.034 98.9624 99.3671C100.1 95.7004 98.9624 92.0338 96.3082 91.3004Z" fill="#333333"/>
<path d="M136.5 117.333C128.917 117.333 128.917 103.767 128.917 103.767C128.917 103.767 131.192 97.1667 140.292 97.1667C147.117 97.1667 148.254 101.567 147.496 107.433C146.358 117.333 140.292 117.333 136.5 117.333Z" fill="white"/>
<path d="M141.429 97.5328C138.775 96.0662 135.742 98.2662 134.604 103.766C133.088 109.266 133.846 115.866 136.5 116.966C139.533 117.699 142.567 115.133 143.704 109.633C144.463 104.133 144.083 98.6328 141.429 97.5328Z" fill="#6D4C41"/>
<path d="M140.671 100.466C139.533 99.733 138.017 100.833 136.879 103.766C136.121 106.7 136.121 110.366 137.258 111.1C138.396 111.833 140.292 110 141.05 107.433C142.187 104.133 142.187 101.2 140.671 100.466Z" fill="#333333"/>
<path d="M133.846 135.3C133.846 135.3 92.8959 129.8 87.2084 128.333L92.5167 143H131.192L133.846 135.3Z" fill="white"/>
<path d="M109.958 91.6665C108.821 91.6665 107.304 90.9332 106.546 89.8332C106.167 89.4665 98.9625 79.5665 72.0417 80.6665C70.1458 80.6665 68.25 79.1999 68.25 76.9999C68.25 74.7999 69.7667 73.3332 72.0417 73.3332C104.271 71.8665 112.992 85.4332 113.371 86.1665C114.508 87.9999 113.75 90.1999 111.854 91.2999C111.096 91.6665 110.717 91.6665 109.958 91.6665ZM151.667 95.3332C150.908 95.3332 150.15 94.9665 149.392 94.5999C146.358 92.7665 138.396 93.8665 133.846 94.9665C131.95 95.6999 129.675 94.5999 129.296 92.3999C128.537 90.5665 129.675 88.3665 131.95 87.9999C133.467 87.6332 147.117 83.5999 154.321 88.3665C156.217 89.4665 156.596 91.6665 155.458 93.4999C153.942 94.5999 152.804 95.3332 151.667 95.3332Z" fill="#6D4C41"/>
<path d="M51.1874 113.667C51.1874 113.667 44.3624 95.3333 34.5041 95.3333C17.4416 94.9667 23.8874 114.033 23.8874 114.033C23.8874 114.033 32.9874 132 41.7083 132C50.8083 132 55.3583 123.933 56.8749 121V113.667H51.1874Z" fill="#FFB74D"/>
<path d="M41.7084 117.333C40.1917 117.333 38.675 116.6 38.2959 115.133C37.1584 112.567 34.8834 110 34.125 110C31.85 110 30.3334 108.533 30.3334 106.333C30.3334 104.133 31.85 102.667 34.125 102.667C40.95 102.667 44.3625 110.733 45.1209 112.2C45.8792 114.033 45.1209 116.233 43.225 116.967C42.8459 117.333 42.0875 117.333 41.7084 117.333Z" fill="#EAA549"/>
</svg>
