<svg width="186" height="194" viewBox="0 0 186 194" fill="none" xmlns="http://www.w3.org/2000/svg">
<path d="M35.34 72.7559V108.772V110.665V138.103C35.34 148.616 43.5128 157.14 53.5921 157.14H79.8981H81.7135H116.244L35.34 72.7559Z" fill="#E0A6CA"/>
<path d="M150.66 118.926L71.9783 36.8599H53.5921C48.8343 36.8599 44.5228 38.7766 41.2734 41.8883L41.2678 41.8825C41.2417 41.9077 41.2176 41.9368 41.1915 41.9621C41.0762 42.0746 40.9516 42.1755 40.8381 42.2899L40.8604 42.3132C37.4715 45.7683 35.34 50.5621 35.34 55.8971V73.6073L115.428 157.14H132.408C137.523 157.14 142.119 154.917 145.432 151.38L145.454 151.403C145.564 151.287 145.66 151.157 145.766 151.037C145.792 151.008 145.82 150.984 145.844 150.955L145.839 150.949C148.82 147.562 150.66 143.063 150.66 138.101V118.926Z" fill="#C6DFF1"/>
<path d="M132.408 36.8599H107.508H105.177H71.1617L150.66 119.777V84.3006V81.8679V55.8971C150.66 45.3842 142.487 36.8599 132.408 36.8599Z" fill="#77CBD2"/>
<path d="M35.2954 135.879H63.1043V158.665H56.5292C44.9153 158.665 35.4572 148.928 35.3066 136.814L35.2954 135.879Z" fill="#656566"/>
<path d="M92.9424 57.9497H63.1042V135.88H92.9424V57.9497Z" fill="#09ACE3"/>
<path d="M122.896 36.8286H93.2864V57.9475H122.896V36.8286Z" fill="#656566"/>
<path d="M129.556 34.7666H57.0164C43.6839 34.7666 32.8364 46.0807 32.8364 59.9866V135.647C32.8364 149.553 43.6839 160.867 57.0164 160.867H129.556C142.889 160.867 153.736 149.553 153.736 135.647V59.9866C153.736 46.0807 142.889 34.7666 129.556 34.7666ZM94.2164 38.6466H121.966V56.9796H94.2164V38.6466ZM64.0342 38.6466H92.0123V56.9796H64.0342V38.6466ZM64.0342 58.9196H77.0933V110.679C74.9729 111.129 73.3733 113.088 73.3733 115.43C73.3733 118.103 75.4583 120.28 78.0233 120.28C80.5882 120.28 82.6733 118.103 82.6733 115.43C82.6733 113.088 81.0737 111.129 78.9533 110.679V58.9196H92.0123V134.909H64.0342V58.9196ZM78.0233 112.52C79.5615 112.52 80.8133 113.825 80.8133 115.43C80.8133 117.034 79.5615 118.34 78.0233 118.34C76.4851 118.34 75.2333 117.034 75.2333 115.43C75.2333 113.825 76.4851 112.52 78.0233 112.52ZM62.1742 156.987H57.0164C46.1243 156.987 37.2186 148.055 36.6141 136.849H62.1724V156.987H62.1742ZM62.1742 57.9496V134.909H36.5564V59.9866C36.5564 48.2205 45.7355 38.6466 57.0164 38.6466H62.1742V57.9496ZM64.0342 156.987V136.849H92.0123V156.987H64.0342ZM150.016 135.647C150.016 147.413 140.837 156.987 129.556 156.987H93.8723V135.879V58.9196H121.966V156.987H123.826V58.9196V38.6466H129.556C140.837 38.6466 150.016 48.2205 150.016 59.9866V135.647V135.647Z" fill="#1F212B"/>
</svg>
