<svg width="184" height="193" viewBox="0 0 184 193" fill="none" xmlns="http://www.w3.org/2000/svg">
<path d="M172.5 36.1877H168.667V28.146H161V20.1043H153.333V12.0627H145.667V4.021H138V12.0627H130.333V4.021H115V12.0627H107.333V4.021H99.6666V12.0627H92H84.3333V20.1043H80.5H76.6666V28.146H53.6666V36.1877H38.3333V44.2293H30.6666V36.1877H23V44.2293H15.3333V52.271H23V60.3127H15.3333V76.396H7.66663V100.521H15.3333V108.563H23V100.521H30.6666V84.4377H38.3333V76.396H46V84.4377H53.6666V92.4793H61.3333V100.521H69V108.563H76.6666V132.688H84.3333V140.729H92V172.896H84.3333V180.938V184.959V188.979H145.667H153.333V156.813H145.667V148.771H153.333V124.646V120.625V116.604H161V92.4793H153.333V84.4377H161V76.396H168.667V68.3543H176.333V60.3127H168.667V52.271H176.333V44.2293V36.1877H172.5ZM76.6666 92.4793V84.4377H69V76.396H61.3333V68.3543H53.6666V60.3127H61.3333V52.271H69V60.3127H76.6666V68.3543H84.3333V60.3127H92V76.396H84.3333V84.4377H92V92.4793H99.6666V100.521H84.3333V92.4793H76.6666Z" fill="#424242"/>
<path d="M99.6667 20.1042H84.3334V44.2292H76.6667V60.3125H84.3334V52.2708H99.6667V44.2292H107.333V52.2708H122.667V60.3125H130.333V52.2708H138V60.3125H145.667V68.3542H153.333V60.3125H161V44.2292H153.333V36.1875H161V28.1458H145.667V20.1042H138V28.1458H130.333V20.1042H122.667V12.0625H115V20.1042H99.6667Z" fill="#6D4C41"/>
<path d="M23 44.229H30.6667V52.2707H23V44.229Z" fill="#827717"/>
<path d="M23 76.3958H30.6667V84.4375H23V76.3958ZM15.3334 84.4375H23V100.521H15.3334V84.4375ZM30.6667 68.3542H38.3334V76.3958H30.6667V68.3542ZM38.3334 60.3125H46V68.3542H38.3334V60.3125ZM46 52.2708H53.6667V60.3125H46V52.2708ZM53.6667 44.2292H61.3334V52.2708H53.6667V44.2292ZM69 36.1875H76.6667V44.2292H69V36.1875Z" fill="#757575"/>
<path d="M46 68.354H53.6667V76.3957H46V68.354ZM53.6667 76.3957H61.3333V84.4373H53.6667V76.3957ZM61.3333 84.4373H69V92.479H61.3333V84.4373ZM69 92.479H76.6667V100.521H69V92.479ZM76.6667 100.521H84.3333V108.562H76.6667V100.521Z" fill="#827717"/>
<path d="M130.333 60.3127H138V84.4377H130.333V92.4793H99.6667V84.4377H92V76.396H99.6667V52.271H107.333V76.396H115V60.3127H122.667V68.3543H130.333V60.3127Z" fill="#FFAB91"/>
<path d="M122.667 12.0625H130.333V20.1042H122.667V12.0625ZM138 12.0625H145.667V20.1042H138V12.0625ZM130.333 20.1042H138V28.1458H130.333V20.1042ZM92 28.1458H107.333V36.1875H92V28.1458ZM145.667 20.1042H153.333V28.1458H145.667V20.1042ZM153.333 60.3125V68.3542H145.667V76.3958H161V68.3542H168.667V60.3125H153.333ZM115 44.2292V36.1875H107.333V52.2708H122.667V44.2292H115ZM92 44.2292H99.6667V52.2708H92V44.2292ZM138 52.2708H145.667V60.3125H138V52.2708ZM145.667 44.2292H153.333V52.2708H145.667V44.2292ZM130.333 36.1875H145.667V44.2292H130.333V36.1875ZM153.333 36.1875V44.2292H161V52.2708H168.667V44.2292V36.1875H153.333Z" fill="#4E342E"/>
<path d="M115 60.3125H122.667V76.3958H115V60.3125Z" fill="#FAFAFA"/>
<path d="M130.333 76.396H138V84.4377H130.333V76.396ZM122.667 84.4377H130.333V92.4793H122.667V84.4377Z" fill="#FF8A65"/>
<path d="M15.3334 76.3958H23V84.4375H15.3334V76.3958ZM23 60.3125H30.6667V76.3958H23V60.3125ZM30.6667 52.2708H38.3334V68.3542H30.6667V52.2708ZM38.3334 44.2292H46V60.3125H38.3334V44.2292ZM46 44.2292H53.6667V52.2708H46V44.2292ZM53.6667 36.1875H69V44.2292H53.6667V36.1875Z" fill="#BDBDBD"/>
<path d="M84.3333 108.562H99.6666V128.667H84.3333V108.562Z" fill="#FFAB91"/>
<path d="M95.8333 108.562V124.646H84.3333V132.688H103.5V124.646V108.562H95.8333Z" fill="#FF8A65"/>
<path d="M130.333 92.479V100.521H103.5V124.646H130.333V116.604H153.333V92.479H130.333Z" fill="#9CCC65"/>
<path d="M138 84.4375H145.667V92.4792H138V84.4375ZM138 124.646H145.667V140.729H138V124.646ZM130.333 108.563H138V116.604H130.333V108.563Z" fill="#689F38"/>
<path d="M122.667 132.688H138V140.729H122.667V132.688Z" fill="#9CCC65"/>
<path d="M115 116.604H130.333V124.646H115V116.604ZM145.667 108.562H153.333V116.604H145.667V108.562Z" fill="#689F38"/>
<path d="M92 172.896H99.6667V180.937H92V172.896ZM99.6667 164.854H107.333V172.896H99.6667V164.854ZM122.667 172.896V164.854H115V172.896H107.333V180.937H130.333V172.896H122.667Z" fill="#33691E"/>
<path d="M99.6667 140.729H107.333V164.854H99.6667V140.729ZM130.333 164.854V140.729H115V164.854H122.667V172.896H138V164.854H130.333Z" fill="#FFA726"/>
<path d="M145.667 148.771V140.729H130.333V164.854H138V172.896H130.333V180.937H138H145.667V156.812H138V148.771H145.667Z" fill="#6D4C41"/>
</svg>
