<svg width="188" height="194" viewBox="0 0 188 194" fill="none" xmlns="http://www.w3.org/2000/svg">
<path d="M39.0276 20.3306C36.5454 18.8756 34.5685 18.1875 31.6956 18.1875C26.7812 18.1875 23.5 21.534 23.5 27.3904V169.641C23.5 175.497 26.7812 178.844 31.6956 178.844C34.5626 178.844 36.566 178.189 39.0276 176.701C207.652 74.8173 80.4141 152.639 158.555 107.224C161.853 105.297 164.5 102.702 164.5 98.5156C164.5 94.3295 161.853 91.7256 158.552 89.7978L39.0276 20.3306Z" fill="#5DBC9D"/>
<path d="M146.875 112.156L141 90.9375C141 90.9375 138.062 109.125 126.312 109.125C114.562 109.125 82.25 112.156 82.25 112.156L73.4375 121.25H114.562L123.375 130.344L146.875 112.156Z" fill="#7BBEEB"/>
<path d="M59.0407 135.363L82.4467 108.995H114.322C129.056 108.995 141 96.13 141 80.2614C141 64.3959 129.056 51.5312 114.322 51.5312H71.1814C59.1024 51.5312 48.7654 60.8705 46.6621 73.6806L38.3931 124.096C36.3045 136.791 50.7717 144.679 59.0407 135.363Z" fill="#B0EDCC"/>
<path d="M70.9905 121.144L113.511 121.025L121.098 129.004L147.454 113.665L142.654 84.2593" stroke="#8D6C9F" stroke-width="2" stroke-miterlimit="10"/>
<path d="M23.5 145.5L23.5705 169.641C23.5999 180.014 32.8001 180.384 39.0834 176.701C66.9691 160.475 -27.6477 215.513 158.493 107.225C165.725 102.993 167.264 94.9026 158.375 89.7313L142.416 80.4465" stroke="#8D6C9F" stroke-width="2" stroke-miterlimit="10" stroke-linecap="round"/>
<path d="M94.0412 52.3042L39.0835 20.3306C32.7179 16.6294 23.5706 17.0993 23.5706 27.3904V49.3851" stroke="#8D6C9F" stroke-width="2" stroke-miterlimit="10" stroke-linecap="round"/>
<path d="M56.7789 136.318L81.1689 109.989H114.386C129.74 109.989 142.187 97.1454 142.187 81.301C142.187 65.4567 129.74 52.6133 114.386 52.6133H69.4307C56.8435 52.6133 46.0688 61.9404 43.8803 74.7293L35.2617 125.069C33.0879 137.743 48.1661 145.618 56.7789 136.318Z" stroke="#8D6C9F" stroke-width="2" stroke-miterlimit="10"/>
<path d="M82.8786 77.4784H73.6137V67.9148H66.1994V77.4784H56.9316V85.1262H66.1994V94.6898H73.6137V85.1262H82.8786V77.4784Z" fill="#8D6C9F"/>
<path d="M106.047 86.0818C108.605 86.0818 110.679 83.9416 110.679 81.3015C110.679 78.6614 108.605 76.5212 106.047 76.5212C103.488 76.5212 101.414 78.6614 101.414 81.3015C101.414 83.9416 103.488 86.0818 106.047 86.0818Z" fill="#8D6C9F"/>
<path d="M124.582 86.0818C127.141 86.0818 129.215 83.9416 129.215 81.3015C129.215 78.6614 127.141 76.5212 124.582 76.5212C122.024 76.5212 119.95 78.6614 119.95 81.3015C119.95 83.9416 122.024 86.0818 124.582 86.0818Z" fill="#8D6C9F"/>
<path d="M115.314 76.5205C117.873 76.5205 119.947 74.3803 119.947 71.7402C119.947 69.1002 117.873 66.96 115.314 66.96C112.756 66.96 110.682 69.1002 110.682 71.7402C110.682 74.3803 112.756 76.5205 115.314 76.5205Z" fill="#8D6C9F"/>
<path d="M115.314 95.6448C117.873 95.6448 119.947 93.5046 119.947 90.8645C119.947 88.2244 117.873 86.0842 115.314 86.0842C112.756 86.0842 110.682 88.2244 110.682 90.8645C110.682 93.5046 112.756 95.6448 115.314 95.6448Z" fill="#8D6C9F"/>
<path d="M29.375 60.625C29.375 58.9518 28.059 57.5938 26.4375 57.5938H20.5625C18.941 57.5938 17.625 58.9518 17.625 60.625C17.625 62.2982 18.941 63.6562 20.5625 63.6562H26.4375C28.059 63.6562 29.375 62.2982 29.375 60.625Z" fill="#8D6C9F"/>
<path d="M29.375 72.75C29.375 71.0768 28.059 69.7188 26.4375 69.7188H20.5625C18.941 69.7188 17.625 71.0768 17.625 72.75C17.625 74.4232 18.941 75.7812 20.5625 75.7812H26.4375C28.059 75.7812 29.375 74.4232 29.375 72.75Z" fill="#8D6C9F"/>
<path d="M29.375 84.875C29.375 83.2018 28.059 81.8438 26.4375 81.8438H20.5625C18.941 81.8438 17.625 83.2018 17.625 84.875C17.625 86.5482 18.941 87.9062 20.5625 87.9062H26.4375C28.059 87.9062 29.375 86.5482 29.375 84.875Z" fill="#8D6C9F"/>
<path d="M29.375 97C29.375 95.3268 28.059 93.9688 26.4375 93.9688H20.5625C18.941 93.9688 17.625 95.3268 17.625 97C17.625 98.6732 18.941 100.031 20.5625 100.031H26.4375C28.059 100.031 29.375 98.6732 29.375 97Z" fill="#8D6C9F"/>
<path d="M29.375 109.125C29.375 107.452 28.059 106.094 26.4375 106.094H20.5625C18.941 106.094 17.625 107.452 17.625 109.125C17.625 110.798 18.941 112.156 20.5625 112.156H26.4375C28.059 112.156 29.375 110.798 29.375 109.125Z" fill="#8D6C9F"/>
<path d="M29.375 121.25C29.375 119.577 28.059 118.219 26.4375 118.219H20.5625C18.941 118.219 17.625 119.577 17.625 121.25C17.625 122.923 18.941 124.281 20.5625 124.281H26.4375C28.059 124.281 29.375 122.923 29.375 121.25Z" fill="#8D6C9F"/>
<path d="M29.375 133.375C29.375 131.702 28.059 130.344 26.4375 130.344H20.5625C18.941 130.344 17.625 131.702 17.625 133.375C17.625 135.048 18.941 136.406 20.5625 136.406H26.4375C28.059 136.406 29.375 135.048 29.375 133.375Z" fill="#8D6C9F"/>
</svg>
