<svg width="184" height="194" viewBox="0 0 184 194" fill="none" xmlns="http://www.w3.org/2000/svg">
<path d="M160.476 110.018C162.564 105.837 163.76 101.084 163.76 96.0302C163.76 83.1854 156.107 72.2516 145.358 67.9428C145.358 67.9293 145.36 67.9157 145.36 67.9002C145.36 45.4 128.06 27.1602 106.72 27.1602C88.7174 27.1602 73.635 40.1601 69.3441 57.7287C66.6282 56.7878 63.7339 56.2602 60.72 56.2602C46.5667 56.2602 34.9177 67.4986 33.3224 81.969C23.747 84.105 16.56 93.06 16.56 103.79C16.56 116.111 26.0342 126.1 37.72 126.1C38.0457 126.1 38.3677 126.077 38.6878 126.057C38.6805 126.397 38.64 126.729 38.64 127.07C38.64 149.035 55.5275 166.84 76.36 166.84C88.2041 166.84 98.762 161.074 105.679 152.069C109.686 156.386 115.258 159.08 121.44 159.08C129.996 159.08 137.4 153.939 141.065 146.435C143.001 147.085 145.06 147.44 147.2 147.44C158.378 147.44 167.44 137.886 167.44 126.1C167.44 119.677 164.735 113.931 160.476 110.018Z" fill="#C7EDE6"/>
<path d="M59.8 76.6299V77.5999H65.32V76.6299C65.32 76.6299 73.1253 76.6299 75.44 76.6299C80.0124 76.6299 83.72 72.7208 83.72 67.8999C83.72 63.3739 80.4411 59.6956 76.2588 59.2572C76.2993 58.9061 76.36 58.5627 76.36 58.1999C76.36 53.379 72.6524 49.4699 68.08 49.4699C65.4341 49.4699 63.1065 50.8007 61.5903 52.8377C61.3327 47.7239 57.3546 43.6499 52.44 43.6499C47.3598 43.6499 43.24 47.9936 43.24 53.3499C43.24 54.2151 43.3817 55.0377 43.5841 55.837C42.4028 54.3296 40.6382 53.3499 38.64 53.3499C35.363 53.3499 32.6894 55.9398 32.2828 59.2766C31.9498 59.2339 31.6241 59.1699 31.28 59.1699C26.7076 59.1699 23 63.079 23 67.8999C23 72.7208 26.7076 76.6299 31.28 76.6299C35.8524 76.6299 48.76 76.6299 48.76 76.6299H59.8Z" fill="#FDFCEF"/>
<path d="M52.44 42.6802C46.8593 42.6802 42.32 47.4662 42.32 53.3502C42.32 53.3812 42.32 53.4103 42.32 53.4414C41.2123 52.7527 39.9464 52.3802 38.64 52.3802C35.271 52.3802 32.3638 54.8265 31.5413 58.2099C31.4548 58.2041 31.3683 58.2002 31.28 58.2002C26.2071 58.2002 22.08 62.5516 22.08 67.9002C22.08 73.2488 26.2071 77.6002 31.28 77.6002H59.8C60.3079 77.6002 60.72 77.1656 60.72 76.6302C60.72 76.0947 60.3079 75.6602 59.8 75.6602H31.28C27.221 75.6602 23.92 72.1798 23.92 67.9002C23.92 63.6205 27.221 60.1402 31.28 60.1402C31.4953 60.1402 31.7032 60.1732 31.9111 60.2023L32.1706 60.2391C32.2092 60.2449 32.246 60.2469 32.2847 60.2469C32.7373 60.2469 33.1347 59.888 33.1955 59.3991C33.5469 56.5027 35.8874 54.3202 38.64 54.3202C40.2684 54.3202 41.8103 55.0981 42.8739 56.4542C43.0542 56.6831 43.3173 56.8073 43.5841 56.8073C43.7276 56.8073 43.8711 56.7723 44.0036 56.6986C44.3882 56.491 44.5814 56.0274 44.471 55.587C44.2594 54.7431 44.16 54.0331 44.16 53.3502C44.16 48.537 47.875 44.6202 52.44 44.6202C56.8211 44.6202 60.4385 48.2519 60.6722 52.8904C60.6924 53.2939 60.9482 53.6412 61.3143 53.7634C61.4063 53.7944 61.5002 53.81 61.594 53.81C61.87 53.81 62.1387 53.6761 62.3153 53.4375C63.7339 51.5324 65.8334 50.4402 68.08 50.4402C72.1391 50.4402 75.44 53.9205 75.44 58.2002C75.44 58.4272 75.4087 58.6464 75.3811 58.8656L75.3462 59.1391C75.3167 59.3991 75.3867 59.6591 75.5412 59.8628C75.6958 60.0665 75.9221 60.1964 76.1668 60.2217C79.9499 60.6194 82.8 63.9212 82.8 67.9002C82.8 72.1798 79.4991 75.6602 75.44 75.6602H65.32C64.8122 75.6602 64.4 76.0947 64.4 76.6302C64.4 77.1656 64.8122 77.6002 65.32 77.6002H75.44C80.5129 77.6002 84.64 73.2488 84.64 67.9002C84.64 63.25 81.5323 59.339 77.2745 58.4388C77.2782 58.3593 77.28 58.2797 77.28 58.2002C77.28 52.8516 73.1529 48.5002 68.08 48.5002C65.9162 48.5002 63.8609 49.3072 62.2233 50.7583C61.123 46.0946 57.1412 42.6802 52.44 42.6802Z" fill="#472B29"/>
<path d="M49.68 56.2598C47.0985 56.2598 44.8794 58.1978 44.3201 60.8013C43.6448 60.3706 42.8738 60.1398 42.09 60.1398C39.8783 60.1398 38.0457 61.8799 37.7605 64.1517C37.387 64.0624 37.0318 64.0198 36.6841 64.0198C33.8707 64.0198 31.5118 66.3478 31.315 69.3198C31.2984 69.5876 31.4898 69.8204 31.7418 69.8398C31.7529 69.8398 31.7639 69.8398 31.775 69.8398C32.0142 69.8398 32.2166 69.6438 32.2331 69.3897C32.3969 66.924 34.351 64.9898 36.6841 64.9898C37.1054 64.9898 37.5489 65.0712 38.042 65.2361C38.0825 65.2497 38.1248 65.2555 38.1653 65.2555C38.2665 65.2555 38.3677 65.2167 38.4523 65.1508C38.5701 65.0615 38.64 64.9025 38.64 64.7473C38.64 62.7413 40.1874 61.1098 42.09 61.1098C42.9125 61.1098 43.7184 61.4357 44.355 62.0274C44.4415 62.1069 44.5501 62.1496 44.6586 62.1496C44.7175 62.1496 44.7746 62.138 44.8298 62.1127C44.9917 62.0448 45.1021 61.8858 45.115 61.7015C45.3063 59.193 47.3101 57.2298 49.68 57.2298C50.0627 57.2298 50.462 57.2957 50.9349 57.4373C50.9772 57.4509 51.0214 57.4567 51.0637 57.4567C51.2642 57.4567 51.4446 57.3151 51.5034 57.1037C51.5734 56.8456 51.4317 56.5779 51.187 56.5042C50.6313 56.3374 50.151 56.2598 49.68 56.2598Z" fill="#472B29"/>
<path d="M75.2247 59.1699C72.7849 59.1699 70.61 60.9101 69.9366 63.403C69.8666 63.661 70.0083 63.9287 70.253 64.0025C70.2972 64.0141 70.3395 64.0199 70.38 64.0199C70.5806 64.0199 70.7646 63.8802 70.8216 63.6668C71.3828 61.591 73.1934 60.1399 75.2247 60.1399C75.44 60.1399 75.6479 60.1671 75.854 60.1962C75.8761 60.2001 75.8963 60.202 75.9184 60.202C76.141 60.202 76.3398 60.0235 76.371 59.781C76.406 59.5152 76.2294 59.2708 75.9773 59.2359C75.7307 59.201 75.4805 59.1699 75.2247 59.1699Z" fill="#472B29"/>
<path d="M63.3273 142.202C58.5414 142.202 54.6498 138.097 54.6498 133.051V68.7091C54.6498 63.6631 58.5433 59.5581 63.3273 59.5581H124.355C129.14 59.5581 133.034 63.6631 133.034 68.7091V133.051C133.034 138.097 129.14 142.202 124.355 142.202H63.3273Z" fill="#1E65D6"/>
<path d="M133.032 125.285V133.045C133.032 138.089 129.15 142.202 124.347 142.202H63.3328C58.5488 142.202 54.648 138.089 54.648 133.045V124.703C65.7248 121.289 78.844 119.31 92.92 119.31C107.769 119.31 121.569 121.522 133.032 125.285Z" fill="#88BBED"/>
<path d="M133.032 131.299V133.045C133.032 138.089 129.15 142.202 124.347 142.202H63.3328C58.5488 142.202 54.648 138.089 54.648 133.045V131.299C63.7376 127.535 77.924 125.13 93.84 125.13C109.774 125.13 123.942 127.535 133.032 131.299Z" fill="#1E65D6"/>
<path d="M133.032 113.121V125.285C121.569 121.522 107.769 119.31 92.92 119.31C78.844 119.31 65.7248 121.289 54.648 124.703V112.598C65.9824 109.435 78.936 107.67 92.92 107.67C107.658 107.67 121.293 109.629 133.032 113.121Z" fill="#4792DD"/>
<path d="M133.032 89.1043V113.122C121.293 109.63 107.658 107.67 92.92 107.67C78.936 107.67 65.9824 109.436 54.648 112.598V88.6581C66.3504 85.8839 79.212 84.3901 92.92 84.3901C107.364 84.3901 120.851 86.0391 133.032 89.1043Z" fill="#2D80D3"/>
<path d="M133.032 68.7149V89.1043C120.851 86.0391 107.364 84.3901 92.92 84.3901C79.212 84.3901 66.3504 85.8839 54.648 88.6581V68.7149C54.648 63.6709 58.5488 59.5581 63.3328 59.5581H124.347C129.131 59.5581 133.032 63.6709 133.032 68.7149Z" fill="#1E65D6"/>
<path d="M131.928 137.507C130.456 140.301 127.604 142.202 124.347 142.202H63.3328C60.076 142.202 57.2424 140.301 55.752 137.507C66.1664 134.015 79.4144 131.92 93.84 131.92C108.266 131.92 121.514 134.015 131.928 137.507Z" fill="#2D80D3"/>
<path d="M117.76 142.396C136.16 129.98 111.504 126.876 111.504 126.876L107.64 128.234C116.84 128.234 118.68 132.89 115 134.83C112.672 136.056 102.12 138.71 100.28 142.59L117.76 142.396Z" fill="#88BBED"/>
<path d="M118.008 142.805L117.512 141.986C122.354 138.72 124.553 135.87 124.051 133.514C123.037 128.769 111.561 127.176 111.445 127.163L111.561 126.201C112.06 126.267 123.793 127.898 124.949 133.301C125.545 136.097 123.21 139.294 118.008 142.805Z" fill="#472B29"/>
<path d="M100.692 142.805L99.8697 142.373C101.318 139.319 107.554 137.084 111.681 135.608C113.044 135.121 114.22 134.698 114.794 134.395C115.92 133.802 116.474 132.923 116.277 132.044C115.907 130.387 113.094 128.717 107.642 128.717V127.747C114.005 127.747 116.754 129.941 117.175 131.821C117.477 133.167 116.742 134.454 115.208 135.263C114.577 135.596 113.43 136.008 111.979 136.526C108.232 137.866 101.971 140.111 100.692 142.805Z" fill="#472B29"/>
<path d="M89.24 142.59H94.76C96.6 138.71 109.48 134.83 109.48 134.83C109.48 134.83 89.24 138.71 89.24 142.59Z" fill="#88BBED"/>
<path d="M124.353 60.9162C128.428 60.9162 131.744 64.4121 131.744 68.7092V133.053C131.744 137.35 128.428 140.846 124.353 140.846H63.3273C59.2517 140.846 55.936 137.35 55.936 133.053V68.7092C55.936 64.4121 59.2517 60.9162 63.3273 60.9162H124.353V60.9162ZM124.353 58.2002H63.3273C57.822 58.2002 53.36 62.9047 53.36 68.7092V133.053C53.36 138.856 57.822 143.56 63.3273 143.56H124.355C129.858 143.56 134.32 138.856 134.32 133.051V68.7092C134.32 62.9047 129.858 58.2002 124.353 58.2002Z" fill="#472B29"/>
<path d="M95.1722 142.805L94.3497 142.373C95.2973 140.375 98.8688 138.427 102.293 136.95C95.7978 138.638 89.7 140.854 89.7 142.588H88.78C88.78 138.508 105.955 135.012 109.397 134.351C109.655 134.3 109.872 134.467 109.927 134.717C109.982 134.968 109.843 135.224 109.605 135.294C106.078 136.359 96.6055 139.783 95.1722 142.805Z" fill="#472B29"/>
<path d="M30.36 104.76H11.96C11.4521 104.76 11.04 104.325 11.04 103.79C11.04 103.254 11.4521 102.82 11.96 102.82H30.36C30.8678 102.82 31.28 103.254 31.28 103.79C31.28 104.325 30.8697 104.76 30.36 104.76Z" fill="white"/>
<path d="M35.88 104.76H34.04C33.5322 104.76 33.12 104.325 33.12 103.79C33.12 103.254 33.5322 102.82 34.04 102.82H35.88C36.3878 102.82 36.8 103.254 36.8 103.79C36.8 104.325 36.3897 104.76 35.88 104.76Z" fill="white"/>
<path d="M45.0634 108.64H28.52C28.0121 108.64 27.6 108.206 27.6 107.67C27.6 107.135 28.0121 106.7 28.52 106.7H45.0634C45.5713 106.7 45.9834 107.135 45.9834 107.67C45.9834 108.206 45.5713 108.64 45.0634 108.64Z" fill="white"/>
<path d="M24.84 108.64H23C22.4922 108.64 22.08 108.206 22.08 107.67C22.08 107.135 22.4922 106.7 23 106.7H24.84C25.3479 106.7 25.76 107.135 25.76 107.67C25.76 108.206 25.3497 108.64 24.84 108.64Z" fill="white"/>
<path d="M19.32 108.64H15.64C15.1321 108.64 14.72 108.206 14.72 107.67C14.72 107.135 15.1321 106.7 15.64 106.7H19.32C19.8278 106.7 20.24 107.135 20.24 107.67C20.24 108.206 19.8297 108.64 19.32 108.64Z" fill="white"/>
<path d="M30.36 112.52H26.68C26.1722 112.52 25.76 112.086 25.76 111.55C25.76 111.015 26.1722 110.58 26.68 110.58H30.36C30.8679 110.58 31.28 111.015 31.28 111.55C31.28 112.086 30.8679 112.52 30.36 112.52Z" fill="white"/>
<path d="M35.88 95.0601C35.5543 95.0601 34.3657 95.0601 34.04 95.0601C33.5322 95.0601 33.12 95.4946 33.12 96.0301C33.12 96.5655 33.5322 97.0001 34.04 97.0001C34.3657 97.0001 35.5543 97.0001 35.88 97.0001C36.3878 97.0001 36.8 96.5655 36.8 96.0301C36.8 95.4946 36.3878 95.0601 35.88 95.0601Z" fill="white"/>
<path d="M35.88 98.9399C35.5543 98.9399 27.0057 98.9399 26.68 98.9399C26.1722 98.9399 25.76 99.3745 25.76 99.9099C25.76 100.445 26.1722 100.88 26.68 100.88C27.0057 100.88 35.5543 100.88 35.88 100.88C36.3878 100.88 36.8 100.445 36.8 99.9099C36.8 99.3745 36.3878 98.9399 35.88 98.9399Z" fill="white"/>
<path d="M45.08 102.82C44.7543 102.82 39.8857 102.82 39.56 102.82C39.0522 102.82 38.64 103.254 38.64 103.79C38.64 104.325 39.0522 104.76 39.56 104.76C39.8857 104.76 44.7543 104.76 45.08 104.76C45.5879 104.76 46 104.325 46 103.79C46 103.254 45.5879 102.82 45.08 102.82Z" fill="white"/>
<path d="M126.04 40.7398H107.64C107.132 40.7398 106.72 40.3052 106.72 39.7698C106.72 39.2344 107.132 38.7998 107.64 38.7998H126.04C126.548 38.7998 126.96 39.2344 126.96 39.7698C126.96 40.3052 126.548 40.7398 126.04 40.7398Z" fill="white"/>
<path d="M133.4 40.7398H129.72C129.212 40.7398 128.8 40.3052 128.8 39.7698C128.8 39.2344 129.212 38.7998 129.72 38.7998H133.4C133.908 38.7998 134.32 39.2344 134.32 39.7698C134.32 40.3052 133.908 40.7398 133.4 40.7398Z" fill="white"/>
<path d="M142.6 44.6202H124.2C123.692 44.6202 123.28 44.1856 123.28 43.6502C123.28 43.1147 123.692 42.6802 124.2 42.6802H142.6C143.108 42.6802 143.52 43.1147 143.52 43.6502C143.52 44.1856 143.11 44.6202 142.6 44.6202Z" fill="white"/>
<path d="M120.52 44.6202H118.68C118.172 44.6202 117.76 44.1856 117.76 43.6502C117.76 43.1147 118.172 42.6802 118.68 42.6802H120.52C121.028 42.6802 121.44 43.1147 121.44 43.6502C121.44 44.1856 121.028 44.6202 120.52 44.6202Z" fill="white"/>
<path d="M114.945 44.6202H111.32C110.812 44.6202 110.4 44.1856 110.4 43.6502C110.4 43.1147 110.812 42.6802 111.32 42.6802H114.945C115.453 42.6802 115.865 43.1147 115.865 43.6502C115.865 44.1856 115.453 44.6202 114.945 44.6202Z" fill="white"/>
<path d="M131.56 36.8599H122.36C121.852 36.8599 121.44 36.4254 121.44 35.8899C121.44 35.3545 121.852 34.9199 122.36 34.9199H131.56C132.068 34.9199 132.48 35.3545 132.48 35.8899C132.48 36.4254 132.07 36.8599 131.56 36.8599Z" fill="white"/>
<path d="M126.04 48.5001H122.36C121.852 48.5001 121.44 48.0655 121.44 47.5301C121.44 46.9946 121.852 46.5601 122.36 46.5601H126.04C126.548 46.5601 126.96 46.9946 126.96 47.5301C126.96 48.0655 126.548 48.5001 126.04 48.5001Z" fill="white"/>
<path d="M161 121.25C161 121.25 163.883 121.25 167.44 121.25C170.997 121.25 173.88 118.21 173.88 114.46C173.88 111.005 171.424 108.186 168.259 107.757C168.31 107.41 168.36 107.063 168.36 106.7C168.36 102.95 165.477 99.9098 161.92 99.9098C160.021 99.9098 158.332 100.792 157.154 102.17C156.448 98.6624 153.498 96.0298 149.96 96.0298C145.895 96.0298 142.6 99.5043 142.6 103.79C142.6 104.16 142.655 104.515 142.703 104.872C141.916 104.205 140.929 103.79 139.84 103.79C137.58 103.79 135.709 105.511 135.323 107.776C134.993 107.722 134.664 107.67 134.32 107.67C130.763 107.67 127.88 110.71 127.88 114.46C127.88 118.21 130.763 121.25 134.32 121.25C137.877 121.25 148.12 121.25 148.12 121.25V122.22H161V121.25Z" fill="#FDFCEF"/>
<path d="M164.22 112.52C163.966 112.52 163.76 112.303 163.76 112.035C163.76 109.663 165.591 107.732 167.841 107.732C167.904 107.75 169.197 107.73 170.13 107.996C170.375 108.066 170.52 108.332 170.454 108.59C170.388 108.85 170.136 109.003 169.891 108.931C169.074 108.699 167.867 108.699 167.843 108.702C166.099 108.702 164.68 110.198 164.68 112.035C164.68 112.303 164.474 112.52 164.22 112.52Z" fill="#472B29"/>
<path d="M151.8 122.22C152.308 122.22 152.72 121.785 152.72 121.25C152.72 120.714 152.308 120.28 151.8 120.28C151.292 120.28 150.88 120.714 150.88 121.25C150.88 121.785 151.292 122.22 151.8 122.22Z" fill="#472B29"/>
<path d="M167.44 122.22H161C160.492 122.22 160.08 121.785 160.08 121.25C160.08 120.715 160.492 120.28 161 120.28H167.44C170.483 120.28 172.96 117.669 172.96 114.46C172.96 111.558 170.89 109.09 168.143 108.72C167.896 108.685 167.674 108.549 167.525 108.339C167.376 108.13 167.313 107.866 167.352 107.608C167.394 107.309 167.44 107.01 167.44 106.7C167.44 103.491 164.963 100.88 161.92 100.88C160.356 100.88 158.906 101.569 157.837 102.82C157.607 103.09 157.246 103.204 156.917 103.107C156.582 103.012 156.326 102.729 156.255 102.372C155.627 99.2602 152.979 97.0001 149.96 97.0001C146.409 97.0001 143.52 100.046 143.52 103.79C143.52 104.067 143.559 104.333 143.595 104.601C143.649 104.995 143.48 105.451 143.15 105.649C142.821 105.846 142.422 105.878 142.127 105.629C141.456 105.061 140.666 104.76 139.84 104.76C138.063 104.76 136.543 106.101 136.228 107.949C136.14 108.467 135.683 108.815 135.181 108.735C134.898 108.689 134.614 108.64 134.32 108.64C131.277 108.64 128.8 111.251 128.8 114.46C128.8 117.669 131.277 120.28 134.32 120.28H148.12C148.628 120.28 149.04 120.715 149.04 121.25C149.04 121.785 148.628 122.22 148.12 122.22H134.32C130.261 122.22 126.96 118.74 126.96 114.46C126.96 110.18 130.261 106.7 134.32 106.7C134.429 106.7 134.533 106.704 134.64 106.712C135.402 104.411 137.468 102.82 139.84 102.82C140.482 102.82 141.108 102.938 141.7 103.169C142.004 98.6432 145.592 95.0601 149.96 95.0601C153.329 95.0601 156.337 97.2464 157.602 100.442C158.853 99.4755 160.365 98.9401 161.92 98.9401C165.979 98.9401 169.28 102.42 169.28 106.7C169.28 106.793 169.278 106.884 169.273 106.976C172.48 107.845 174.8 110.908 174.8 114.46C174.8 118.74 171.499 122.22 167.44 122.22Z" fill="#472B29"/>
<path d="M157.32 120.28C157.027 120.28 155.773 120.28 155.48 120.28C154.972 120.28 154.56 120.714 154.56 121.25C154.56 121.785 154.972 122.22 155.48 122.22C155.773 122.22 157.027 122.22 157.32 122.22C157.828 122.22 158.24 121.785 158.24 121.25C158.24 120.714 157.828 120.28 157.32 120.28Z" fill="#472B29"/>
<path d="M132.697 132.203C123.311 128.323 109.147 126.1 93.84 126.1C78.5385 126.1 64.3761 128.323 54.9847 132.201L54.3149 130.393C63.9105 126.432 78.3159 124.16 93.84 124.16C109.368 124.16 123.777 126.434 133.369 130.395L132.697 132.203Z" fill="#472B29"/>
<path d="M93.84 131.92C110.099 131.92 123.28 118.023 123.28 100.88C123.28 83.7369 110.099 69.8398 93.84 69.8398C77.5808 69.8398 64.4 83.7369 64.4 100.88C64.4 118.023 77.5808 131.92 93.84 131.92Z" fill="#EDEDEB"/>
<path d="M123.28 100.88H101.2C101.2 96.5924 97.9064 93.1198 93.84 93.1198C89.7736 93.1198 86.48 96.5924 86.48 100.88H64.4C64.4 83.7302 77.5744 69.8398 93.84 69.8398C110.106 69.8398 123.28 83.7302 123.28 100.88Z" fill="#F45834"/>
<path d="M121.974 91.6842C116.711 94.051 108.818 95.7388 99.728 96.2432C98.4032 94.342 96.2504 93.1198 93.84 93.1198C91.4296 93.1198 89.2768 94.342 87.952 96.2432C78.8624 95.7388 70.9688 94.051 65.7064 91.6842C69.4232 79.0354 80.6104 69.8398 93.84 69.8398C107.07 69.8398 118.257 79.0354 121.974 91.6842Z" fill="#FC7C59"/>
<path d="M116.535 94.1169C116.332 94.1169 116.146 93.9753 116.091 93.758C116.025 93.5 116.17 93.2322 116.415 93.1643C118.757 92.497 120.824 91.7307 122.549 90.8868C122.779 90.7762 123.054 90.881 123.16 91.1235C123.269 91.366 123.168 91.655 122.938 91.7675C121.162 92.6347 119.05 93.4185 116.656 94.0994C116.614 94.1111 116.573 94.1169 116.535 94.1169Z" fill="#472B29"/>
<path d="M93.84 96.9031C89.6338 96.9031 85.5159 96.6567 81.5967 96.1736C81.3446 96.1426 81.1643 95.9001 81.1937 95.6343C81.2231 95.3685 81.4421 95.1881 81.7052 95.2094C85.5876 95.6906 89.6706 95.935 93.84 95.935C100.852 95.935 107.609 95.2444 113.383 93.9368C113.629 93.8922 113.876 94.0474 113.929 94.3093C113.982 94.5712 113.824 94.8292 113.578 94.8855C107.741 96.2047 100.917 96.9031 93.84 96.9031Z" fill="#472B29"/>
<path d="M78.5919 95.7412C78.568 95.7412 78.5459 95.7393 78.5201 95.7354C77.0113 95.4929 75.5393 95.2097 74.1501 94.8954C73.9017 94.8391 73.7435 94.5811 73.7968 94.3192C73.8502 94.0573 74.1023 93.8963 74.3433 93.9467C75.7178 94.2571 77.1696 94.5365 78.6618 94.777C78.912 94.8178 79.085 95.0642 79.0464 95.3299C79.0114 95.5686 78.8145 95.7412 78.5919 95.7412Z" fill="#472B29"/>
<path d="M71.2061 94.1347C71.1675 94.1347 71.127 94.1289 71.0865 94.1192C70.1647 93.8573 69.2705 93.576 68.4259 93.283C68.1848 93.1996 68.0542 92.9241 68.1333 92.67C68.2124 92.4158 68.4701 92.2762 68.7148 92.3615C69.5409 92.6486 70.4186 92.9261 71.3239 93.1802C71.5686 93.25 71.714 93.5158 71.6496 93.7758C71.5962 93.9911 71.4104 94.1347 71.2061 94.1347Z" fill="#472B29"/>
<path d="M93.84 70.6159C109.668 70.6159 122.544 84.192 122.544 100.88C122.544 117.568 109.668 131.144 93.84 131.144C78.0123 131.144 65.136 117.568 65.136 100.88C65.136 84.192 78.0123 70.6159 93.84 70.6159ZM93.84 67.8999C76.5642 67.8999 62.56 82.6652 62.56 100.88C62.56 119.095 76.5642 133.86 93.84 133.86C111.116 133.86 125.12 119.095 125.12 100.88C125.12 82.6652 111.116 67.8999 93.84 67.8999Z" fill="#472B29"/>
<path d="M86.48 100.104H64.4V102.82H86.48V100.104Z" fill="#472B29"/>
<path d="M123.28 100.104H101.2V102.82H123.28V100.104Z" fill="#472B29"/>
<path d="M93.84 108.64C97.9048 108.64 101.2 105.166 101.2 100.88C101.2 96.5944 97.9048 93.1201 93.84 93.1201C89.7752 93.1201 86.48 96.5944 86.48 100.88C86.48 105.166 89.7752 108.64 93.84 108.64Z" fill="#EDEDEB"/>
<path d="M93.84 93.8962C97.4924 93.8962 100.464 97.0293 100.464 100.88C100.464 104.731 97.4924 107.864 93.84 107.864C90.1876 107.864 87.216 104.731 87.216 100.88C87.216 97.0293 90.1876 93.8962 93.84 93.8962ZM93.84 91.1802C88.7598 91.1802 84.64 95.5238 84.64 100.88C84.64 106.237 88.7598 110.58 93.84 110.58C98.9203 110.58 103.04 106.237 103.04 100.88C103.04 95.5238 98.9203 91.1802 93.84 91.1802Z" fill="#472B29"/>
<path d="M93.84 127.555C90.8776 127.555 87.9759 127.022 85.2141 125.966C84.9749 125.875 84.8516 125.598 84.9381 125.345C85.0227 125.093 85.2914 124.967 85.5269 125.054C92.1564 127.59 99.8292 126.901 105.958 123.192C106.175 123.06 106.459 123.14 106.586 123.372C106.711 123.603 106.635 123.9 106.415 124.034C102.608 126.337 98.2578 127.555 93.84 127.555Z" fill="#472B29"/>
<path d="M102.311 76.7366C102.26 76.7366 102.206 76.7269 102.155 76.7075C100.219 75.9684 98.1971 75.4911 96.14 75.2874C95.8861 75.2622 95.7021 75.0255 95.7241 74.7598C95.7499 74.494 95.9707 74.2942 96.2246 74.3213C98.3572 74.5308 100.457 75.0275 102.466 75.7957C102.705 75.8869 102.828 76.1643 102.742 76.4165C102.676 76.6144 102.499 76.7366 102.311 76.7366Z" fill="#472B29"/>
<path d="M81.4936 78.6341C81.3353 78.6341 81.1808 78.5468 81.0943 78.3916C80.9673 78.1588 81.0446 77.864 81.2636 77.7301C84.4118 75.825 87.8416 74.6785 91.4553 74.3235C91.724 74.3099 91.9319 74.4942 91.9558 74.7619C91.9797 75.0296 91.7939 75.2644 91.54 75.2896C88.0569 75.633 84.7541 76.7368 81.7199 78.5721C81.65 78.6128 81.5709 78.6341 81.4936 78.6341Z" fill="#472B29"/>
<path d="M109.062 122.063C108.926 122.063 108.79 121.999 108.7 121.875C108.543 121.663 108.58 121.359 108.781 121.194C110.93 119.432 112.772 117.326 114.258 114.93C114.396 114.707 114.685 114.642 114.895 114.79C115.107 114.935 115.167 115.236 115.028 115.461C113.487 117.946 111.576 120.133 109.346 121.96C109.261 122.028 109.162 122.063 109.062 122.063Z" fill="#472B29"/>
<path d="M116.474 112.171C116.409 112.171 116.345 112.157 116.283 112.128C116.051 112.018 115.948 111.731 116.054 111.486C116.643 110.12 117.122 108.681 117.475 107.207C117.536 106.947 117.791 106.784 118.034 106.855C118.281 106.921 118.43 107.185 118.367 107.445C118.001 108.974 117.502 110.47 116.892 111.888C116.814 112.066 116.649 112.171 116.474 112.171Z" fill="#472B29"/>
</svg>
