<svg width="187" height="194" viewBox="0 0 187 194" fill="none" xmlns="http://www.w3.org/2000/svg">
<path d="M19.4791 27.8069C19.4791 27.8069 124.667 -16.7969 170.634 68.6196C170.634 68.6196 191.383 66.8332 166.94 120.62C149.164 159.743 102.394 157.072 102.394 157.072C102.394 157.072 57.4635 150.973 31.6536 177.834C31.6536 177.834 29.2187 137.288 58.4375 117.011C58.4375 117.011 47.237 101.297 3.89581 112.957C3.89581 112.957 23.375 68.3529 58.4375 64.2991C58.4375 64.2991 46.75 31.8607 19.4791 27.8069Z" fill="#2559B5"/>
<path d="M156.114 134.385C146.417 139.599 119.47 137.7 110.123 131.718C92.2494 120.361 92.0546 64.6667 116.898 64.6667C125.66 64.6667 137.344 71.8609 139.288 90.9376C139.755 95.4642 139.872 114.096 144.426 115.228C145.361 115.47 146.686 113.611 148.322 110.62C148.907 114.218 150.231 116.643 152.062 116.925C155.101 117.451 157.98 112.075 158.954 104.073C159.616 98.6976 159.304 93.9688 158.097 91.2609C161.33 85.3197 164.599 80.6313 167.365 80.6313C175.001 80.6313 172.157 125.817 156.114 134.385Z" fill="white"/>
<path d="M170.17 67.8192C164.365 57.1492 157.586 48.5405 150.223 41.6697C157.314 40.4976 165.729 40.1338 174.845 41.4272C174.845 41.4272 175.975 55.4922 170.17 67.8192ZM109.083 46.2367C109.083 46.2367 106.317 46.5601 101.993 48.1363C101.681 48.2576 101.37 48.3788 101.058 48.5001C95.6427 50.5613 88.1627 54.5222 80.5269 61.7567C79.8256 62.4438 79.0854 63.1713 78.3842 63.8988V63.9392C76.9427 65.3942 75.4623 66.9705 74.0988 68.7084C74.0988 68.7084 66.2292 52.5417 73.9819 28.2917C73.9819 28.2917 95.8765 28.2917 109.083 46.2367Z" fill="#0D47A1"/>
<path d="M88.3965 118.829C72.634 127.397 85.7201 161.667 124.791 161.667C163.863 161.667 175.998 126.597 161.778 123.901C147.796 121.25 144.251 129.333 132.606 129.333C120.599 129.333 102.192 111.328 88.3965 118.829ZM101.058 48.5C95.6428 50.5612 88.1628 54.5221 80.5269 61.7567C78.8907 57.3917 76.6701 48.2575 80.0205 36.375C80.0205 36.375 93.0326 36.375 101.058 48.5Z" fill="#FFBCA7"/>
<path d="M120.198 100.157C119.209 108.16 116.345 113.511 113.283 113.005C110.221 112.496 108.573 106.102 109.563 98.0998C110.552 90.0973 113.864 84.5239 116.922 85.0291C119.984 85.5383 121.184 92.1545 120.198 100.157ZM158.95 104.073C157.976 112.076 155.093 117.451 152.054 116.926C150.223 116.643 148.899 114.218 148.314 110.621C149.133 109.125 150.029 107.347 151.003 105.407C151.158 107.347 151.743 108.681 152.639 108.843C153.963 109.045 155.171 106.781 155.561 103.386C155.911 100.719 155.639 98.3747 154.898 97.4451C155.95 95.3434 157.002 93.2417 158.093 91.2613C159.301 93.9692 159.612 98.698 158.95 104.073ZM175.231 125.183C175.998 128.78 171.467 133.622 165.109 135.999C158.751 138.375 152.978 137.385 152.21 133.788C151.443 130.191 155.974 125.349 162.332 122.972C168.69 120.596 174.463 121.586 175.231 125.183Z" fill="black"/>
<path d="M116.622 99.3638C116.205 102.743 114.993 105.006 113.7 104.792C112.407 104.578 111.709 101.874 112.126 98.4949C112.543 95.116 113.941 92.7597 115.235 92.974C116.528 93.1841 117.039 95.9809 116.622 99.3638ZM168.464 126.669C168.768 128.08 167.069 129.959 164.665 130.861C162.262 131.766 160.068 131.35 159.764 129.939C159.46 128.528 161.159 126.649 163.563 125.748C165.963 124.842 168.156 125.255 168.464 126.669ZM155.561 103.385C155.171 106.78 153.963 109.044 152.639 108.842C151.743 108.68 151.158 107.346 151.003 105.406C151.003 105.366 151.003 105.366 151.003 105.366C152.249 102.9 153.535 100.152 154.898 97.444C155.639 98.3736 155.911 100.718 155.561 103.385Z" fill="white"/>
<path d="M116.875 145.5C108.768 145.5 101.619 140.69 97.3958 133.375" stroke="black" stroke-width="2" stroke-miterlimit="10" stroke-linecap="round"/>
</svg>
