<svg width="188" height="194" viewBox="0 0 188 194" fill="none" xmlns="http://www.w3.org/2000/svg">
<path d="M136.286 113.155C136.037 104.493 134.096 82.6532 121.359 69.0296C114.337 61.5121 105.135 57.7048 94.0003 57.7048C82.866 57.7048 73.6634 61.5121 66.6416 69.0296C53.9046 82.6532 51.9635 104.493 51.7144 113.155L30.0333 104.129C25.8973 100.244 16.4503 89.9767 16.4503 77.2503C16.4503 59.2714 43.1134 7.29395 94.0003 7.29395C144.887 7.29395 171.55 59.2714 171.55 77.2503C171.55 89.9767 162.103 100.244 157.967 104.129L136.286 113.155Z" fill="#F76D6D"/>
<path d="M93.9996 9.71719C142.527 9.71719 169.2 60.4385 169.2 77.2437C169.2 88.9468 160.072 98.802 156.693 102.042L138.462 109.632C137.771 99.2094 134.852 79.9694 123.05 67.3449C115.568 59.3424 105.792 55.2829 93.9996 55.2829C82.2073 55.2829 72.4313 59.3424 64.9489 67.3449C53.1472 79.9694 50.2238 99.2094 49.5376 109.632L31.3063 102.042C27.927 98.802 18.7996 88.9516 18.7996 77.2437C18.7996 60.4385 45.4721 9.71719 93.9996 9.71719ZM93.9996 4.86719C42.1351 4.86719 14.0996 57.9892 14.0996 77.2437C14.0996 93.5737 28.4393 105.834 28.7495 106.208L54.0496 116.742C54.0496 116.742 52.0709 60.1329 93.9996 60.1329C135.928 60.1329 133.95 116.742 133.95 116.742L159.25 106.208C159.56 105.834 173.9 93.5737 173.9 77.2437C173.9 57.9892 145.864 4.86719 93.9996 4.86719Z" fill="#AB3434"/>
<path d="M38.4745 143.077C27.7726 143.077 16.4503 128.459 16.4503 114.641C16.4503 104.65 22.6214 99.4268 28.722 99.4268C34.0424 99.4268 42.4648 101.774 48.6923 108.394L49.2469 108.976L45.9099 142.407L44.1944 142.829C43.2121 143.048 41.647 143.077 40.5613 143.077H38.4745Z" fill="#DEB974"/>
<path d="M28.7213 101.85C33.52 101.85 41.087 103.95 46.7975 109.862L43.7472 140.446L43.7284 140.451C42.8354 140.65 41.1199 140.65 40.5606 140.65H38.4691C28.9093 140.65 18.7996 127.279 18.7996 114.635C18.7996 105.851 23.9414 101.85 28.7213 101.85ZM28.7213 97C21.4786 97 14.0996 103.048 14.0996 114.635C14.0996 129.689 26.1457 145.5 38.4691 145.5H40.5606C42.1633 145.5 43.625 145.437 44.7389 145.185L48.0806 144.365L51.6996 108.087L50.3789 106.7C43.625 99.5172 34.5023 97 28.7213 97Z" fill="#967A44"/>
<path d="M35.2503 111.552H49.3503C53.2278 111.552 56.4003 114.826 56.4003 118.827C56.4003 122.828 53.2278 126.102 49.3503 126.102H35.2503C31.3728 126.102 28.2003 122.828 28.2003 118.827C28.2003 114.826 31.3728 111.552 35.2503 111.552Z" fill="#967A44"/>
<path d="M147.439 143.076C146.354 143.076 144.789 143.047 143.773 142.814L142.091 142.402L138.754 108.971L139.299 108.399C145.536 101.774 153.958 99.4214 159.279 99.4214C165.379 99.4214 171.55 104.645 171.55 114.636C171.55 128.458 160.233 143.071 149.526 143.071H147.439V143.076Z" fill="#DEB974"/>
<path d="M159.278 101.85C164.058 101.85 169.2 105.851 169.2 114.635C169.2 127.279 159.09 140.65 149.53 140.65H147.439C146.875 140.65 145.164 140.65 144.346 140.466L144.252 140.441L141.202 109.857C146.894 103.955 154.475 101.85 159.278 101.85ZM159.278 97C153.497 97 144.379 99.5172 137.625 106.7L136.3 108.087L139.919 144.365L143.26 145.185C144.374 145.437 145.841 145.5 147.439 145.5H149.526C161.854 145.5 173.9 129.689 173.9 114.635C173.9 103.048 166.521 97 159.278 97Z" fill="#967A44"/>
<path d="M152.749 111.552H138.649C134.772 111.552 131.599 114.826 131.599 118.827C131.599 122.828 134.772 126.102 138.649 126.102H152.749C156.627 126.102 159.799 122.828 159.799 118.827C159.799 114.826 156.627 111.552 152.749 111.552Z" fill="#967A44"/>
<path d="M94.0001 186.723C81.6344 186.723 75.8393 183.537 69.7011 180.156C67.8446 179.142 66.209 178.24 64.3619 177.367C63.2997 176.863 62.026 176.339 60.6066 175.772C57.5422 174.52 30.5454 162.774 30.5454 137.214C30.5454 128.887 34.39 122.131 37.4826 116.704C38.3192 115.229 39.0853 113.876 39.6916 112.649L39.9501 112.13V88.0449C42.004 85.1979 54.6423 70.323 94.0001 70.323C133.64 70.323 146.02 85.1543 148.05 88.0303V112.13L148.309 112.644C148.915 113.871 149.681 115.224 150.518 116.699C153.605 122.126 157.455 128.887 157.455 137.209C157.455 162.774 130.463 174.516 127.389 175.772C125.979 176.334 124.705 176.858 123.638 177.363C121.796 178.24 120.16 179.138 118.567 180.011C112.161 183.537 106.366 186.723 94.0001 186.723Z" fill="#F5CE85"/>
<path d="M94.0003 72.7511C130.115 72.7511 142.904 85.4484 145.7 88.8822V111.551V112.715L146.213 113.753C146.838 115.019 147.627 116.416 148.492 117.939C151.434 123.114 155.1 129.554 155.1 137.217C155.1 156.676 137.137 169.198 126.543 173.52C125.072 174.111 123.742 174.654 122.661 175.173C120.739 176.085 119.075 176.997 117.463 177.88L117.19 178.03C111.32 181.255 105.774 184.301 94.0003 184.301C82.2221 184.301 76.6808 181.255 70.8011 178.02L70.5379 177.875C68.9258 176.992 67.262 176.076 65.3538 175.173C64.254 174.65 62.9286 174.102 61.4763 173.52C50.8637 169.193 32.9003 156.676 32.9003 137.217C32.9003 129.554 36.5663 123.114 39.5085 117.939C40.3733 116.416 41.1629 115.019 41.788 113.753L42.3003 112.715V111.551V88.8919C45.172 85.3757 57.9889 72.7511 94.0003 72.7511ZM94.0003 67.9011C48.462 67.9011 37.6003 87.3011 37.6003 87.3011C37.6003 93.6692 37.6003 108.447 37.6003 111.551C34.7615 117.313 28.2003 125.897 28.2003 137.217C28.2003 160.74 49.9425 174.034 59.7514 178.035C61.1191 178.583 62.3552 179.087 63.3751 179.577C65.2739 180.479 66.9565 181.411 68.5921 182.308C74.7162 185.669 81.0471 189.151 94.0003 189.151C106.953 189.151 113.284 185.669 119.404 182.303C121.039 181.406 122.722 180.474 124.621 179.572C125.641 179.083 126.877 178.583 128.244 178.03C138.058 174.034 159.8 160.74 159.8 137.217C159.8 125.902 153.239 117.313 150.4 111.551C150.4 108.447 150.4 93.6643 150.4 87.3011C150.4 87.3011 139.539 67.9011 94.0003 67.9011Z" fill="#967A44"/>
<path d="M84.5998 109.076C84.5998 115.75 80.3933 121.153 75.1998 121.153C70.0063 121.153 65.7998 115.745 65.7998 109.076C65.7998 102.408 70.0063 97 75.1998 97C80.3933 97 84.5998 102.408 84.5998 109.076Z" fill="white"/>
<path d="M83.0678 112.188C83.0678 117.193 80.2525 121.248 76.7839 121.248C73.3153 121.248 70.5 117.193 70.5 112.188C70.5 107.183 73.3153 103.128 76.7839 103.128C80.2525 103.133 83.0678 107.183 83.0678 112.188Z" fill="#4E7AB5"/>
<path d="M83.0678 114.77C83.0678 118.344 81.1784 121.249 78.8472 121.249C76.5207 121.249 74.6266 118.349 74.6266 114.77C74.6266 111.195 76.516 108.29 78.8472 108.29C81.1737 108.29 83.0678 111.195 83.0678 114.77Z" fill="#36404D"/>
<path d="M37.5996 121.251C43.8412 110.261 51.6996 106.701 51.6996 106.701V80.0261H37.5996C37.5996 80.0261 37.5996 113.612 37.5996 121.251ZM84.6419 143.857C82.0381 143.857 79.6223 144.677 77.6201 146.073C77.2535 144.992 76.6942 144.012 76.0785 143.081C61.2453 141.51 50.957 136.567 48.184 130.951C47.3756 132.76 46.9996 135.821 46.9996 137.382C46.9996 143.047 49.6645 147.815 53.3493 149.57C53.3352 149.827 53.2741 150.07 53.2741 150.332C53.2741 157.481 58.8906 163.281 65.8231 163.281C68.4269 163.281 70.8427 162.462 72.8449 161.065C74.5557 166.109 79.1664 169.751 84.6419 169.751C91.5697 169.751 97.1909 163.955 97.1909 156.802C97.1909 149.653 91.5697 143.857 84.6419 143.857Z" fill="#4D3E40"/>
<path d="M94 19.4011C106.977 19.4011 117.5 30.2603 117.5 43.6511C117.5 57.042 106.977 67.9011 94 67.9011V19.4011ZM94 19.4011C81.0233 19.4011 70.5 30.2603 70.5 43.6511C70.5 57.042 81.0233 67.9011 94 67.9011V19.4011Z" fill="white"/>
<path d="M94.0001 35.7676L99.8986 29.0989C99.8986 29.0989 112.951 50.6474 112.8 51.0742C112.645 51.501 105.797 53.3489 105.797 53.3489L99.2077 36.3933L94.0001 41.8301V35.7676ZM94.0001 35.7676L88.1016 29.0989C88.1016 29.0989 75.0497 50.6474 75.2001 51.0742C75.3552 51.501 82.2031 53.3489 82.2031 53.3489L88.7925 36.3933L94.0001 41.8301V35.7676Z" fill="#F76D6D"/>
<path d="M67.6805 92.148C75.1112 92.148 84.6005 96.998 84.6005 96.998C84.6005 96.998 77.2779 82.448 67.6805 82.448C59.2534 82.448 56.4005 96.998 56.4005 96.998C56.4005 96.998 62.017 92.148 67.6805 92.148Z" fill="#4D3E40"/>
<path d="M112.8 97C117.994 97 122.2 102.408 122.2 109.076C122.2 115.745 117.994 121.153 112.8 121.153C107.607 121.153 103.4 115.745 103.4 109.076C103.4 102.408 107.607 97 112.8 97Z" fill="white"/>
<path d="M111.216 103.134C114.685 103.134 117.5 107.188 117.5 112.194C117.5 117.199 114.685 121.249 111.216 121.249C107.748 121.249 104.932 117.194 104.932 112.189C104.932 107.184 107.748 103.134 111.216 103.134Z" fill="#4E7AB5"/>
<path d="M109.153 108.29C111.479 108.29 113.374 111.19 113.374 114.77C113.374 118.344 111.484 121.249 109.153 121.249C106.826 121.249 104.932 118.349 104.932 114.77C104.932 111.195 106.826 108.29 109.153 108.29Z" fill="#36404D"/>
<path d="M150.4 121.251C144.158 110.261 136.3 106.701 136.3 106.701V80.0261H150.4C150.4 80.0261 150.4 113.612 150.4 121.251ZM103.358 143.857C105.961 143.857 108.377 144.677 110.379 146.073C110.746 144.992 111.305 144.012 111.921 143.081C126.754 141.51 137.043 136.567 139.816 130.951C140.624 132.76 141 135.821 141 137.382C141 143.047 138.335 147.815 134.65 149.57C134.664 149.827 134.725 150.07 134.725 150.332C134.725 157.481 129.109 163.281 122.176 163.281C119.573 163.281 117.157 162.462 115.155 161.065C113.444 166.109 108.833 169.751 103.358 169.751C96.4298 169.751 90.8086 163.955 90.8086 156.802C90.8086 149.653 96.4298 143.857 103.358 143.857Z" fill="#4D3E40"/>
<path d="M120.32 92.148C112.89 92.148 103.4 96.998 103.4 96.998C103.4 96.998 110.723 82.448 120.32 82.448C128.748 82.448 131.6 96.998 131.6 96.998C131.6 96.998 125.984 92.148 120.32 92.148Z" fill="#4D3E40"/>
<path d="M93.9995 113.979C88.3902 113.979 83.0106 116.022 79.0442 119.661C75.0778 123.299 72.8495 128.233 72.8495 133.379C72.8495 138.524 75.0778 143.458 79.0442 147.096C83.0106 150.735 88.3902 152.779 93.9995 152.779C99.6088 152.779 104.988 150.735 108.955 147.096C112.921 143.458 115.15 138.524 115.15 133.379C115.15 128.233 112.921 123.299 108.955 119.661C104.988 116.022 99.6088 113.979 93.9995 113.979Z" fill="#FFF7D1"/>
<path d="M94 116.402C104.368 116.402 112.8 124.016 112.8 133.377C112.8 142.737 104.368 150.352 94 150.352C83.6318 150.352 75.2 142.737 75.2 133.377C75.2 124.016 83.6318 116.402 94 116.402ZM94 111.552C81.0374 111.552 70.5 121.344 70.5 133.377C70.5 145.41 81.0374 155.202 94 155.202C106.963 155.202 117.5 145.41 117.5 133.377C117.5 121.344 106.963 111.552 94 111.552Z" fill="#BA9B48"/>
<path d="M37.5573 99.427C34.4318 99.427 31.9079 96.7207 30.3522 94.4509C30.1172 94.1599 25.8496 89.242 25.8496 81.8457C26.1222 78.1985 42.0317 50.927 93.9996 50.927C145.967 50.927 161.877 78.1986 162.15 81.8749C162.15 89.3245 157.887 94.155 157.844 94.2035C156.096 96.7158 153.581 99.4124 150.428 99.427C149.488 99.2475 147.011 96.5558 145.324 93.864C140.671 88.0829 126.712 75.177 93.9996 75.177C61.2876 75.177 47.3286 88.0828 42.8448 93.6312C40.9742 96.5703 38.4832 99.2766 37.5573 99.427Z" fill="#FFCACA"/>
<path d="M94 53.35C142.321 53.35 158.578 77.275 159.8 82.1008C159.701 88.3427 156.129 92.538 156.12 92.5477L155.908 92.7854L155.73 93.0472C154.799 94.4052 152.994 96.6168 150.936 96.9563C150.038 96.2579 148.398 94.2888 147.298 92.5428L147.143 92.3003L146.96 92.0773C142.264 86.2621 127.699 72.75 94 72.75C60.301 72.75 45.7357 86.2621 41.0404 92.0724L40.8571 92.2955L40.702 92.538C39.6257 94.25 37.9619 96.2482 37.0595 96.9515C35.0009 96.612 33.1961 94.4004 32.2655 93.0424L32.0822 92.7805L31.9036 92.5719C31.8707 92.538 28.2987 88.3476 28.2 82.1008C29.422 77.275 45.6793 53.35 94 53.35ZM94 48.5C39.6774 48.5 23.5 77.4593 23.5 81.8437C23.5 90.3603 28.435 95.8457 28.435 95.8457C31.1375 99.7936 34.3241 101.85 37.6 101.85C40.4623 101.85 44.65 95.1812 44.65 95.1812C47.3431 91.8493 60.1788 77.6 94 77.6C127.821 77.6 140.657 91.8493 143.35 95.1812C143.35 95.1812 147.538 101.85 150.4 101.85C153.676 101.85 156.862 99.7936 159.565 95.8457C159.565 95.8457 164.5 90.3555 164.5 81.8437C164.5 77.4593 148.323 48.5 94 48.5Z" fill="#AB3434"/>
</svg>
